solid OpenSCAD_Model
  facet normal 0 0 -1
    outer loop
      vertex -39.9 -81.5 0
      vertex -13.9 -78.5 0
      vertex -13.9 -81.5 0
    endloop
  endfacet
  facet normal -0 0 -1
    outer loop
      vertex -13.9 -78.5 0
      vertex -39.9 -81.5 0
      vertex -39.9 -78.5 0
    endloop
  endfacet
  facet normal 0 0 -1
    outer loop
      vertex -13.9 -81.5 0
      vertex 13.9 -78.5 0
      vertex 13.9 -81.5 0
    endloop
  endfacet
  facet normal -0 0 -1
    outer loop
      vertex 13.9 -78.5 0
      vertex -13.9 -81.5 0
      vertex -13.9 -78.5 0
    endloop
  endfacet
  facet normal 0 -1 0
    outer loop
      vertex -39.9 -78.5 -0.599999
      vertex -13.9 -78.5 0
      vertex -39.9 -78.5 0
    endloop
  endfacet
  facet normal 0 -1 -0
    outer loop
      vertex -13.9 -78.5 0
      vertex -39.9 -78.5 -0.599999
      vertex -13.9 -78.5 -0.599999
    endloop
  endfacet
  facet normal 0 -1 0
    outer loop
      vertex -13.9 -78.5 -0.599999
      vertex 13.9 -78.5 0
      vertex -13.9 -78.5 0
    endloop
  endfacet
  facet normal 0 -1 -0
    outer loop
      vertex 13.9 -78.5 0
      vertex -13.9 -78.5 -0.599999
      vertex 13.9 -78.5 -0.599999
    endloop
  endfacet
  facet normal 0 1 -0
    outer loop
      vertex -13.9 -81.5 -0.599999
      vertex -39.9 -81.5 0
      vertex -13.9 -81.5 0
    endloop
  endfacet
  facet normal 0 1 0
    outer loop
      vertex -39.9 -81.5 0
      vertex -13.9 -81.5 -0.599999
      vertex -39.9 -81.5 -0.599999
    endloop
  endfacet
  facet normal 0 1 -0
    outer loop
      vertex 13.9 -81.5 -0.599999
      vertex -13.9 -81.5 0
      vertex 13.9 -81.5 0
    endloop
  endfacet
  facet normal 0 1 0
    outer loop
      vertex -13.9 -81.5 0
      vertex 13.9 -81.5 -0.599999
      vertex -13.9 -81.5 -0.599999
    endloop
  endfacet
  facet normal 0 0 -1
    outer loop
      vertex -39.9 -65.5 0
      vertex -13.9 -62.5 0
      vertex -13.9 -65.5 0
    endloop
  endfacet
  facet normal -0 0 -1
    outer loop
      vertex -13.9 -62.5 0
      vertex -39.9 -65.5 0
      vertex -39.9 -62.5 0
    endloop
  endfacet
  facet normal 0 0 -1
    outer loop
      vertex -13.9 -65.5 0
      vertex 13.9 -62.5 0
      vertex 13.9 -65.5 0
    endloop
  endfacet
  facet normal -0 0 -1
    outer loop
      vertex 13.9 -62.5 0
      vertex -13.9 -65.5 0
      vertex -13.9 -62.5 0
    endloop
  endfacet
  facet normal 0 1 -0
    outer loop
      vertex -13.9 -65.5 -0.599999
      vertex -39.9 -65.5 0
      vertex -13.9 -65.5 0
    endloop
  endfacet
  facet normal 0 1 0
    outer loop
      vertex -39.9 -65.5 0
      vertex -13.9 -65.5 -0.599999
      vertex -39.9 -65.5 -0.599999
    endloop
  endfacet
  facet normal 0 1 -0
    outer loop
      vertex 13.9 -65.5 -0.599999
      vertex -13.9 -65.5 0
      vertex 13.9 -65.5 0
    endloop
  endfacet
  facet normal 0 1 0
    outer loop
      vertex -13.9 -65.5 0
      vertex 13.9 -65.5 -0.599999
      vertex -13.9 -65.5 -0.599999
    endloop
  endfacet
  facet normal 0 -1 0
    outer loop
      vertex -39.9 -62.5 -0.599999
      vertex -13.9 -62.5 0
      vertex -39.9 -62.5 0
    endloop
  endfacet
  facet normal 0 -1 -0
    outer loop
      vertex -13.9 -62.5 0
      vertex -39.9 -62.5 -0.599999
      vertex -13.9 -62.5 -0.599999
    endloop
  endfacet
  facet normal 0 -1 0
    outer loop
      vertex -13.9 -62.5 -0.599999
      vertex 13.9 -62.5 0
      vertex -13.9 -62.5 0
    endloop
  endfacet
  facet normal 0 -1 -0
    outer loop
      vertex 13.9 -62.5 0
      vertex -13.9 -62.5 -0.599999
      vertex 13.9 -62.5 -0.599999
    endloop
  endfacet
  facet normal 0 0 -1
    outer loop
      vertex -39.9 -49.5 0
      vertex -13.9 -46.5 0
      vertex -13.9 -49.5 0
    endloop
  endfacet
  facet normal -0 0 -1
    outer loop
      vertex -13.9 -46.5 0
      vertex -39.9 -49.5 0
      vertex -39.9 -46.5 0
    endloop
  endfacet
  facet normal 0 0 -1
    outer loop
      vertex -13.9 -49.5 0
      vertex 13.9 -46.5 0
      vertex 13.9 -49.5 0
    endloop
  endfacet
  facet normal -0 0 -1
    outer loop
      vertex 13.9 -46.5 0
      vertex -13.9 -49.5 0
      vertex -13.9 -46.5 0
    endloop
  endfacet
  facet normal 0 1 -0
    outer loop
      vertex -13.9 -49.5 -0.599999
      vertex -39.9 -49.5 0
      vertex -13.9 -49.5 0
    endloop
  endfacet
  facet normal 0 1 0
    outer loop
      vertex -39.9 -49.5 0
      vertex -13.9 -49.5 -0.599999
      vertex -39.9 -49.5 -0.599999
    endloop
  endfacet
  facet normal 0 1 -0
    outer loop
      vertex 13.9 -49.5 -0.599999
      vertex -13.9 -49.5 0
      vertex 13.9 -49.5 0
    endloop
  endfacet
  facet normal 0 1 0
    outer loop
      vertex -13.9 -49.5 0
      vertex 13.9 -49.5 -0.599999
      vertex -13.9 -49.5 -0.599999
    endloop
  endfacet
  facet normal 0 -1 0
    outer loop
      vertex -39.9 -46.5 -0.599999
      vertex -13.9 -46.5 0
      vertex -39.9 -46.5 0
    endloop
  endfacet
  facet normal 0 -1 -0
    outer loop
      vertex -13.9 -46.5 0
      vertex -39.9 -46.5 -0.599999
      vertex -13.9 -46.5 -0.599999
    endloop
  endfacet
  facet normal 0 -1 0
    outer loop
      vertex -13.9 -46.5 -0.599999
      vertex 13.9 -46.5 0
      vertex -13.9 -46.5 0
    endloop
  endfacet
  facet normal 0 -1 -0
    outer loop
      vertex 13.9 -46.5 0
      vertex -13.9 -46.5 -0.599999
      vertex 13.9 -46.5 -0.599999
    endloop
  endfacet
  facet normal 0 0 -1
    outer loop
      vertex -39.9 -33.5 0
      vertex -13.9 -30.5 0
      vertex -13.9 -33.5 0
    endloop
  endfacet
  facet normal -0 0 -1
    outer loop
      vertex -13.9 -30.5 0
      vertex -39.9 -33.5 0
      vertex -39.9 -30.5 0
    endloop
  endfacet
  facet normal 0 0 -1
    outer loop
      vertex -13.9 -33.5 0
      vertex 13.9 -30.5 0
      vertex 13.9 -33.5 0
    endloop
  endfacet
  facet normal -0 0 -1
    outer loop
      vertex 13.9 -30.5 0
      vertex -13.9 -33.5 0
      vertex -13.9 -30.5 0
    endloop
  endfacet
  facet normal 0 1 -0
    outer loop
      vertex -13.9 -33.5 -0.599999
      vertex -39.9 -33.5 0
      vertex -13.9 -33.5 0
    endloop
  endfacet
  facet normal 0 1 0
    outer loop
      vertex -39.9 -33.5 0
      vertex -13.9 -33.5 -0.599999
      vertex -39.9 -33.5 -0.599999
    endloop
  endfacet
  facet normal 0 1 -0
    outer loop
      vertex 13.9 -33.5 -0.599999
      vertex -13.9 -33.5 0
      vertex 13.9 -33.5 0
    endloop
  endfacet
  facet normal 0 1 0
    outer loop
      vertex -13.9 -33.5 0
      vertex 13.9 -33.5 -0.599999
      vertex -13.9 -33.5 -0.599999
    endloop
  endfacet
  facet normal 0 -1 0
    outer loop
      vertex -39.9 -30.5 -0.599999
      vertex -13.9 -30.5 0
      vertex -39.9 -30.5 0
    endloop
  endfacet
  facet normal 0 -1 -0
    outer loop
      vertex -13.9 -30.5 0
      vertex -39.9 -30.5 -0.599999
      vertex -13.9 -30.5 -0.599999
    endloop
  endfacet
  facet normal 0 -1 0
    outer loop
      vertex -13.9 -30.5 -0.599999
      vertex 13.9 -30.5 0
      vertex -13.9 -30.5 0
    endloop
  endfacet
  facet normal 0 -1 -0
    outer loop
      vertex 13.9 -30.5 0
      vertex -13.9 -30.5 -0.599999
      vertex 13.9 -30.5 -0.599999
    endloop
  endfacet
  facet normal 0 0 -1
    outer loop
      vertex -39.9 -17.5 0
      vertex -13.9 -14.5 0
      vertex -13.9 -17.5 0
    endloop
  endfacet
  facet normal -0 0 -1
    outer loop
      vertex -13.9 -14.5 0
      vertex -39.9 -17.5 0
      vertex -39.9 -14.5 0
    endloop
  endfacet
  facet normal 0 0 -1
    outer loop
      vertex -13.9 -17.5 0
      vertex 13.9 -14.5 0
      vertex 13.9 -17.5 0
    endloop
  endfacet
  facet normal -0 0 -1
    outer loop
      vertex 13.9 -14.5 0
      vertex -13.9 -17.5 0
      vertex -13.9 -14.5 0
    endloop
  endfacet
  facet normal 0 -1 0
    outer loop
      vertex -39.9 -14.5 -0.599999
      vertex -13.9 -14.5 0
      vertex -39.9 -14.5 0
    endloop
  endfacet
  facet normal 0 -1 -0
    outer loop
      vertex -13.9 -14.5 0
      vertex -39.9 -14.5 -0.599999
      vertex -13.9 -14.5 -0.599999
    endloop
  endfacet
  facet normal 0 -1 0
    outer loop
      vertex -13.9 -14.5 -0.599999
      vertex 13.9 -14.5 0
      vertex -13.9 -14.5 0
    endloop
  endfacet
  facet normal 0 -1 -0
    outer loop
      vertex 13.9 -14.5 0
      vertex -13.9 -14.5 -0.599999
      vertex 13.9 -14.5 -0.599999
    endloop
  endfacet
  facet normal 0 1 -0
    outer loop
      vertex -13.9 -17.5 -0.599999
      vertex -39.9 -17.5 0
      vertex -13.9 -17.5 0
    endloop
  endfacet
  facet normal 0 1 0
    outer loop
      vertex -39.9 -17.5 0
      vertex -13.9 -17.5 -0.599999
      vertex -39.9 -17.5 -0.599999
    endloop
  endfacet
  facet normal 0 1 -0
    outer loop
      vertex 13.9 -17.5 -0.599999
      vertex -13.9 -17.5 0
      vertex 13.9 -17.5 0
    endloop
  endfacet
  facet normal 0 1 0
    outer loop
      vertex -13.9 -17.5 0
      vertex 13.9 -17.5 -0.599999
      vertex -13.9 -17.5 -0.599999
    endloop
  endfacet
  facet normal 0 0 -1
    outer loop
      vertex -39.9 -1.5 0
      vertex -13.9 1.5 0
      vertex -13.9 -1.5 0
    endloop
  endfacet
  facet normal -0 0 -1
    outer loop
      vertex -13.9 1.5 0
      vertex -39.9 -1.5 0
      vertex -39.9 1.5 0
    endloop
  endfacet
  facet normal 0 0 -1
    outer loop
      vertex -13.9 -1.5 0
      vertex 13.9 1.5 0
      vertex 13.9 -1.5 0
    endloop
  endfacet
  facet normal -0 0 -1
    outer loop
      vertex 13.9 1.5 0
      vertex -13.9 -1.5 0
      vertex -13.9 1.5 0
    endloop
  endfacet
  facet normal 0 -1 0
    outer loop
      vertex -39.9 1.5 -0.599999
      vertex -13.9 1.5 0
      vertex -39.9 1.5 0
    endloop
  endfacet
  facet normal 0 -1 -0
    outer loop
      vertex -13.9 1.5 0
      vertex -39.9 1.5 -0.599999
      vertex -13.9 1.5 -0.599999
    endloop
  endfacet
  facet normal 0 -1 0
    outer loop
      vertex -13.9 1.5 -0.599999
      vertex 13.9 1.5 0
      vertex -13.9 1.5 0
    endloop
  endfacet
  facet normal 0 -1 -0
    outer loop
      vertex 13.9 1.5 0
      vertex -13.9 1.5 -0.599999
      vertex 13.9 1.5 -0.599999
    endloop
  endfacet
  facet normal 0 1 -0
    outer loop
      vertex -13.9 -1.5 -0.599999
      vertex -39.9 -1.5 0
      vertex -13.9 -1.5 0
    endloop
  endfacet
  facet normal 0 1 0
    outer loop
      vertex -39.9 -1.5 0
      vertex -13.9 -1.5 -0.599999
      vertex -39.9 -1.5 -0.599999
    endloop
  endfacet
  facet normal 0 1 -0
    outer loop
      vertex 13.9 -1.5 -0.599999
      vertex -13.9 -1.5 0
      vertex 13.9 -1.5 0
    endloop
  endfacet
  facet normal 0 1 0
    outer loop
      vertex -13.9 -1.5 0
      vertex 13.9 -1.5 -0.599999
      vertex -13.9 -1.5 -0.599999
    endloop
  endfacet
  facet normal 0 0 -1
    outer loop
      vertex -39.9 14.5 0
      vertex -13.9 17.5 0
      vertex -13.9 14.5 0
    endloop
  endfacet
  facet normal -0 0 -1
    outer loop
      vertex -13.9 17.5 0
      vertex -39.9 14.5 0
      vertex -39.9 17.5 0
    endloop
  endfacet
  facet normal 0 0 -1
    outer loop
      vertex -13.9 14.5 0
      vertex 13.9 17.5 0
      vertex 13.9 14.5 0
    endloop
  endfacet
  facet normal -0 0 -1
    outer loop
      vertex 13.9 17.5 0
      vertex -13.9 14.5 0
      vertex -13.9 17.5 0
    endloop
  endfacet
  facet normal 0 -1 0
    outer loop
      vertex -39.9 17.5 -0.599999
      vertex -13.9 17.5 0
      vertex -39.9 17.5 0
    endloop
  endfacet
  facet normal 0 -1 -0
    outer loop
      vertex -13.9 17.5 0
      vertex -39.9 17.5 -0.599999
      vertex -13.9 17.5 -0.599999
    endloop
  endfacet
  facet normal 0 -1 0
    outer loop
      vertex -13.9 17.5 -0.599999
      vertex 13.9 17.5 0
      vertex -13.9 17.5 0
    endloop
  endfacet
  facet normal 0 -1 -0
    outer loop
      vertex 13.9 17.5 0
      vertex -13.9 17.5 -0.599999
      vertex 13.9 17.5 -0.599999
    endloop
  endfacet
  facet normal 0 1 -0
    outer loop
      vertex -13.9 14.5 -0.599999
      vertex -39.9 14.5 0
      vertex -13.9 14.5 0
    endloop
  endfacet
  facet normal 0 1 0
    outer loop
      vertex -39.9 14.5 0
      vertex -13.9 14.5 -0.599999
      vertex -39.9 14.5 -0.599999
    endloop
  endfacet
  facet normal 0 1 -0
    outer loop
      vertex 13.9 14.5 -0.599999
      vertex -13.9 14.5 0
      vertex 13.9 14.5 0
    endloop
  endfacet
  facet normal 0 1 0
    outer loop
      vertex -13.9 14.5 0
      vertex 13.9 14.5 -0.599999
      vertex -13.9 14.5 -0.599999
    endloop
  endfacet
  facet normal 0 0 -1
    outer loop
      vertex -39.9 30.5 0
      vertex -13.9 33.5 0
      vertex -13.9 30.5 0
    endloop
  endfacet
  facet normal -0 0 -1
    outer loop
      vertex -13.9 33.5 0
      vertex -39.9 30.5 0
      vertex -39.9 33.5 0
    endloop
  endfacet
  facet normal 0 0 -1
    outer loop
      vertex -13.9 30.5 0
      vertex 13.9 33.5 0
      vertex 13.9 30.5 0
    endloop
  endfacet
  facet normal -0 0 -1
    outer loop
      vertex 13.9 33.5 0
      vertex -13.9 30.5 0
      vertex -13.9 33.5 0
    endloop
  endfacet
  facet normal 0 -1 0
    outer loop
      vertex -39.9 33.5 -0.599999
      vertex -13.9 33.5 0
      vertex -39.9 33.5 0
    endloop
  endfacet
  facet normal 0 -1 -0
    outer loop
      vertex -13.9 33.5 0
      vertex -39.9 33.5 -0.599999
      vertex -13.9 33.5 -0.599999
    endloop
  endfacet
  facet normal 0 -1 0
    outer loop
      vertex -13.9 33.5 -0.599999
      vertex 13.9 33.5 0
      vertex -13.9 33.5 0
    endloop
  endfacet
  facet normal 0 -1 -0
    outer loop
      vertex 13.9 33.5 0
      vertex -13.9 33.5 -0.599999
      vertex 13.9 33.5 -0.599999
    endloop
  endfacet
  facet normal 0 1 -0
    outer loop
      vertex -13.9 30.5 -0.599999
      vertex -39.9 30.5 0
      vertex -13.9 30.5 0
    endloop
  endfacet
  facet normal 0 1 0
    outer loop
      vertex -39.9 30.5 0
      vertex -13.9 30.5 -0.599999
      vertex -39.9 30.5 -0.599999
    endloop
  endfacet
  facet normal 0 1 -0
    outer loop
      vertex 13.9 30.5 -0.599999
      vertex -13.9 30.5 0
      vertex 13.9 30.5 0
    endloop
  endfacet
  facet normal 0 1 0
    outer loop
      vertex -13.9 30.5 0
      vertex 13.9 30.5 -0.599999
      vertex -13.9 30.5 -0.599999
    endloop
  endfacet
  facet normal 0 0 -1
    outer loop
      vertex -39.9 46.5 0
      vertex -13.9 49.5 0
      vertex -13.9 46.5 0
    endloop
  endfacet
  facet normal -0 0 -1
    outer loop
      vertex -13.9 49.5 0
      vertex -39.9 46.5 0
      vertex -39.9 49.5 0
    endloop
  endfacet
  facet normal 0 0 -1
    outer loop
      vertex -13.9 46.5 0
      vertex 13.9 49.5 0
      vertex 13.9 46.5 0
    endloop
  endfacet
  facet normal -0 0 -1
    outer loop
      vertex 13.9 49.5 0
      vertex -13.9 46.5 0
      vertex -13.9 49.5 0
    endloop
  endfacet
  facet normal 0 -1 0
    outer loop
      vertex -39.9 49.5 -0.599999
      vertex -13.9 49.5 0
      vertex -39.9 49.5 0
    endloop
  endfacet
  facet normal 0 -1 -0
    outer loop
      vertex -13.9 49.5 0
      vertex -39.9 49.5 -0.599999
      vertex -13.9 49.5 -0.599999
    endloop
  endfacet
  facet normal 0 -1 0
    outer loop
      vertex -13.9 49.5 -0.599999
      vertex 13.9 49.5 0
      vertex -13.9 49.5 0
    endloop
  endfacet
  facet normal 0 -1 -0
    outer loop
      vertex 13.9 49.5 0
      vertex -13.9 49.5 -0.599999
      vertex 13.9 49.5 -0.599999
    endloop
  endfacet
  facet normal 0 1 -0
    outer loop
      vertex -13.9 46.5 -0.599999
      vertex -39.9 46.5 0
      vertex -13.9 46.5 0
    endloop
  endfacet
  facet normal 0 1 0
    outer loop
      vertex -39.9 46.5 0
      vertex -13.9 46.5 -0.599999
      vertex -39.9 46.5 -0.599999
    endloop
  endfacet
  facet normal 0 1 -0
    outer loop
      vertex 13.9 46.5 -0.599999
      vertex -13.9 46.5 0
      vertex 13.9 46.5 0
    endloop
  endfacet
  facet normal 0 1 0
    outer loop
      vertex -13.9 46.5 0
      vertex 13.9 46.5 -0.599999
      vertex -13.9 46.5 -0.599999
    endloop
  endfacet
  facet normal 0 0 -1
    outer loop
      vertex -39.9 62.5 0
      vertex -13.9 65.5 0
      vertex -13.9 62.5 0
    endloop
  endfacet
  facet normal -0 0 -1
    outer loop
      vertex -13.9 65.5 0
      vertex -39.9 62.5 0
      vertex -39.9 65.5 0
    endloop
  endfacet
  facet normal 0 0 -1
    outer loop
      vertex -13.9 62.5 0
      vertex 13.9 65.5 0
      vertex 13.9 62.5 0
    endloop
  endfacet
  facet normal -0 0 -1
    outer loop
      vertex 13.9 65.5 0
      vertex -13.9 62.5 0
      vertex -13.9 65.5 0
    endloop
  endfacet
  facet normal 0 1 -0
    outer loop
      vertex -13.9 62.5 -0.599999
      vertex -39.9 62.5 0
      vertex -13.9 62.5 0
    endloop
  endfacet
  facet normal 0 1 0
    outer loop
      vertex -39.9 62.5 0
      vertex -13.9 62.5 -0.599999
      vertex -39.9 62.5 -0.599999
    endloop
  endfacet
  facet normal 0 1 -0
    outer loop
      vertex 13.9 62.5 -0.599999
      vertex -13.9 62.5 0
      vertex 13.9 62.5 0
    endloop
  endfacet
  facet normal 0 1 0
    outer loop
      vertex -13.9 62.5 0
      vertex 13.9 62.5 -0.599999
      vertex -13.9 62.5 -0.599999
    endloop
  endfacet
  facet normal 0 -1 0
    outer loop
      vertex -39.9 65.5 -0.599999
      vertex -13.9 65.5 0
      vertex -39.9 65.5 0
    endloop
  endfacet
  facet normal 0 -1 -0
    outer loop
      vertex -13.9 65.5 0
      vertex -39.9 65.5 -0.599999
      vertex -13.9 65.5 -0.599999
    endloop
  endfacet
  facet normal 0 -1 0
    outer loop
      vertex -13.9 65.5 -0.599999
      vertex 13.9 65.5 0
      vertex -13.9 65.5 0
    endloop
  endfacet
  facet normal 0 -1 -0
    outer loop
      vertex 13.9 65.5 0
      vertex -13.9 65.5 -0.599999
      vertex 13.9 65.5 -0.599999
    endloop
  endfacet
  facet normal 0 0 -1
    outer loop
      vertex -39.9 78.5 0
      vertex -13.9 81.5 0
      vertex -13.9 78.5 0
    endloop
  endfacet
  facet normal -0 0 -1
    outer loop
      vertex -13.9 81.5 0
      vertex -39.9 78.5 0
      vertex -39.9 81.5 0
    endloop
  endfacet
  facet normal 0 0 -1
    outer loop
      vertex -13.9 78.5 0
      vertex 13.9 81.5 0
      vertex 13.9 78.5 0
    endloop
  endfacet
  facet normal -0 0 -1
    outer loop
      vertex 13.9 81.5 0
      vertex -13.9 78.5 0
      vertex -13.9 81.5 0
    endloop
  endfacet
  facet normal 0 -1 0
    outer loop
      vertex -39.9 81.5 -0.599999
      vertex -13.9 81.5 0
      vertex -39.9 81.5 0
    endloop
  endfacet
  facet normal 0 -1 -0
    outer loop
      vertex -13.9 81.5 0
      vertex -39.9 81.5 -0.599999
      vertex -13.9 81.5 -0.599999
    endloop
  endfacet
  facet normal 0 -1 0
    outer loop
      vertex -13.9 81.5 -0.599999
      vertex 13.9 81.5 0
      vertex -13.9 81.5 0
    endloop
  endfacet
  facet normal 0 -1 -0
    outer loop
      vertex 13.9 81.5 0
      vertex -13.9 81.5 -0.599999
      vertex 13.9 81.5 -0.599999
    endloop
  endfacet
  facet normal 0 1 -0
    outer loop
      vertex -13.9 78.5 -0.599999
      vertex -39.9 78.5 0
      vertex -13.9 78.5 0
    endloop
  endfacet
  facet normal 0 1 0
    outer loop
      vertex -39.9 78.5 0
      vertex -13.9 78.5 -0.599999
      vertex -39.9 78.5 -0.599999
    endloop
  endfacet
  facet normal 0 1 -0
    outer loop
      vertex 13.9 78.5 -0.599999
      vertex -13.9 78.5 0
      vertex 13.9 78.5 0
    endloop
  endfacet
  facet normal 0 1 0
    outer loop
      vertex -13.9 78.5 0
      vertex 13.9 78.5 -0.599999
      vertex -13.9 78.5 -0.599999
    endloop
  endfacet
  facet normal 1 -0 0
    outer loop
      vertex -38.1 -90 2.2
      vertex -38.1 90 2.19999
      vertex -38.1 90 2.2
    endloop
  endfacet
  facet normal 1 0 0
    outer loop
      vertex -38.1 90 2.19999
      vertex -38.1 -90 2.2
      vertex -38.1 -90 2.19999
    endloop
  endfacet
  facet normal 1 -0 0
    outer loop
      vertex -38.1 -90 1.4
      vertex -38.1 90 0.599999
      vertex -38.1 90 1.4
    endloop
  endfacet
  facet normal 1 0 0
    outer loop
      vertex -38.1 90 0.599999
      vertex -38.1 -90 1.4
      vertex -38.1 -90 0.599999
    endloop
  endfacet
  facet normal -0 0 1
    outer loop
      vertex -38.1 90 0.599999
      vertex -13.9 -90 0.599999
      vertex -13.9 90 0.599999
    endloop
  endfacet
  facet normal 0 0 1
    outer loop
      vertex -13.9 -90 0.599999
      vertex -38.1 90 0.599999
      vertex -38.1 -90 0.599999
    endloop
  endfacet
  facet normal 1 0 0
    outer loop
      vertex -13.9 90 0.599999
      vertex -13.9 81.5 0
      vertex -13.9 90 -0.599999
    endloop
  endfacet
  facet normal 1 0 0
    outer loop
      vertex -13.9 90 0.599999
      vertex -13.9 78.5 0
      vertex -13.9 81.5 0
    endloop
  endfacet
  facet normal 1 0 0
    outer loop
      vertex -13.9 78.5 0
      vertex -13.9 65.5 0
      vertex -13.9 78.5 -0.599999
    endloop
  endfacet
  facet normal 1 0 0
    outer loop
      vertex -13.9 90 0.599999
      vertex -13.9 65.5 0
      vertex -13.9 78.5 0
    endloop
  endfacet
  facet normal 1 0 0
    outer loop
      vertex -13.9 90 0.599999
      vertex -13.9 62.5 0
      vertex -13.9 65.5 0
    endloop
  endfacet
  facet normal 1 0 0
    outer loop
      vertex -13.9 62.5 0
      vertex -13.9 49.5 0
      vertex -13.9 62.5 -0.599999
    endloop
  endfacet
  facet normal 1 0 0
    outer loop
      vertex -13.9 90 0.599999
      vertex -13.9 49.5 0
      vertex -13.9 62.5 0
    endloop
  endfacet
  facet normal 1 0 0
    outer loop
      vertex -13.9 90 0.599999
      vertex -13.9 46.5 0
      vertex -13.9 49.5 0
    endloop
  endfacet
  facet normal 1 0 0
    outer loop
      vertex -13.9 46.5 0
      vertex -13.9 33.5 0
      vertex -13.9 46.5 -0.599999
    endloop
  endfacet
  facet normal 1 0 0
    outer loop
      vertex -13.9 90 0.599999
      vertex -13.9 33.5 0
      vertex -13.9 46.5 0
    endloop
  endfacet
  facet normal 1 0 0
    outer loop
      vertex -13.9 90 0.599999
      vertex -13.9 30.5 0
      vertex -13.9 33.5 0
    endloop
  endfacet
  facet normal 1 0 0
    outer loop
      vertex -13.9 30.5 0
      vertex -13.9 17.5 0
      vertex -13.9 30.5 -0.599999
    endloop
  endfacet
  facet normal 1 0 0
    outer loop
      vertex -13.9 90 0.599999
      vertex -13.9 17.5 0
      vertex -13.9 30.5 0
    endloop
  endfacet
  facet normal 1 0 0
    outer loop
      vertex -13.9 90 0.599999
      vertex -13.9 14.5 0
      vertex -13.9 17.5 0
    endloop
  endfacet
  facet normal 1 0 0
    outer loop
      vertex -13.9 14.5 0
      vertex -13.9 1.5 0
      vertex -13.9 14.5 -0.599999
    endloop
  endfacet
  facet normal 1 0 0
    outer loop
      vertex -13.9 90 0.599999
      vertex -13.9 1.5 0
      vertex -13.9 14.5 0
    endloop
  endfacet
  facet normal 1 0 0
    outer loop
      vertex -13.9 90 0.599999
      vertex -13.9 -1.5 0
      vertex -13.9 1.5 0
    endloop
  endfacet
  facet normal 1 0 0
    outer loop
      vertex -13.9 -1.5 0
      vertex -13.9 -14.5 0
      vertex -13.9 -1.5 -0.599999
    endloop
  endfacet
  facet normal 1 0 0
    outer loop
      vertex -13.9 90 0.599999
      vertex -13.9 -14.5 0
      vertex -13.9 -1.5 0
    endloop
  endfacet
  facet normal 1 0 0
    outer loop
      vertex -13.9 90 0.599999
      vertex -13.9 -17.5 0
      vertex -13.9 -14.5 0
    endloop
  endfacet
  facet normal 1 0 0
    outer loop
      vertex -13.9 -17.5 0
      vertex -13.9 -30.5 0
      vertex -13.9 -17.5 -0.599999
    endloop
  endfacet
  facet normal 1 0 0
    outer loop
      vertex -13.9 90 0.599999
      vertex -13.9 -30.5 0
      vertex -13.9 -17.5 0
    endloop
  endfacet
  facet normal 1 0 0
    outer loop
      vertex -13.9 90 0.599999
      vertex -13.9 -33.5 0
      vertex -13.9 -30.5 0
    endloop
  endfacet
  facet normal 1 0 0
    outer loop
      vertex -13.9 -33.5 0
      vertex -13.9 -46.5 0
      vertex -13.9 -33.5 -0.599999
    endloop
  endfacet
  facet normal 1 0 0
    outer loop
      vertex -13.9 90 0.599999
      vertex -13.9 -46.5 0
      vertex -13.9 -33.5 0
    endloop
  endfacet
  facet normal 1 -0 0
    outer loop
      vertex -13.9 -90 0.599999
      vertex -13.9 -46.5 0
      vertex -13.9 90 0.599999
    endloop
  endfacet
  facet normal 1 0 0
    outer loop
      vertex -13.9 -49.5 0
      vertex -13.9 -62.5 0
      vertex -13.9 -49.5 -0.599999
    endloop
  endfacet
  facet normal 1 0 0
    outer loop
      vertex -13.9 -46.5 0
      vertex -13.9 -90 0.599999
      vertex -13.9 -49.5 0
    endloop
  endfacet
  facet normal 1 0 0
    outer loop
      vertex -13.9 -49.5 0
      vertex -13.9 -90 0.599999
      vertex -13.9 -62.5 0
    endloop
  endfacet
  facet normal 1 0 0
    outer loop
      vertex -13.9 -65.5 0
      vertex -13.9 -78.5 0
      vertex -13.9 -65.5 -0.599999
    endloop
  endfacet
  facet normal 1 0 0
    outer loop
      vertex -13.9 -62.5 0
      vertex -13.9 -90 0.599999
      vertex -13.9 -65.5 0
    endloop
  endfacet
  facet normal 1 0 0
    outer loop
      vertex -13.9 -65.5 0
      vertex -13.9 -90 0.599999
      vertex -13.9 -78.5 0
    endloop
  endfacet
  facet normal 1 0 0
    outer loop
      vertex -13.9 -78.5 0
      vertex -13.9 -90 0.599999
      vertex -13.9 -81.5 0
    endloop
  endfacet
  facet normal 1 0 0
    outer loop
      vertex -13.9 -90 -0.599999
      vertex -13.9 -81.5 0
      vertex -13.9 -90 0.599999
    endloop
  endfacet
  facet normal 1 0 0
    outer loop
      vertex -13.9 -81.5 0
      vertex -13.9 -90 -0.599999
      vertex -13.9 -81.5 -0.599999
    endloop
  endfacet
  facet normal 1 0 0
    outer loop
      vertex -13.9 90 -0.599999
      vertex -13.9 81.5 0
      vertex -13.9 81.5 -0.599999
    endloop
  endfacet
  facet normal 1 0 0
    outer loop
      vertex -13.9 78.5 -0.599999
      vertex -13.9 65.5 0
      vertex -13.9 65.5 -0.599999
    endloop
  endfacet
  facet normal 1 0 0
    outer loop
      vertex -13.9 62.5 -0.599999
      vertex -13.9 49.5 0
      vertex -13.9 49.5 -0.599999
    endloop
  endfacet
  facet normal 1 0 0
    outer loop
      vertex -13.9 46.5 -0.599999
      vertex -13.9 33.5 0
      vertex -13.9 33.5 -0.599999
    endloop
  endfacet
  facet normal 1 0 0
    outer loop
      vertex -13.9 30.5 -0.599999
      vertex -13.9 17.5 0
      vertex -13.9 17.5 -0.599999
    endloop
  endfacet
  facet normal 1 0 0
    outer loop
      vertex -13.9 14.5 -0.599999
      vertex -13.9 1.5 0
      vertex -13.9 1.5 -0.599999
    endloop
  endfacet
  facet normal 1 0 0
    outer loop
      vertex -13.9 -1.5 -0.599999
      vertex -13.9 -14.5 0
      vertex -13.9 -14.5 -0.599999
    endloop
  endfacet
  facet normal 1 0 0
    outer loop
      vertex -13.9 -17.5 -0.599999
      vertex -13.9 -30.5 0
      vertex -13.9 -30.5 -0.599999
    endloop
  endfacet
  facet normal 1 0 0
    outer loop
      vertex -13.9 -33.5 -0.599999
      vertex -13.9 -46.5 0
      vertex -13.9 -46.5 -0.599999
    endloop
  endfacet
  facet normal 1 0 0
    outer loop
      vertex -13.9 -49.5 -0.599999
      vertex -13.9 -62.5 0
      vertex -13.9 -62.5 -0.599999
    endloop
  endfacet
  facet normal 1 0 0
    outer loop
      vertex -13.9 -65.5 -0.599999
      vertex -13.9 -78.5 0
      vertex -13.9 -78.5 -0.599999
    endloop
  endfacet
  facet normal 0 1 0
    outer loop
      vertex -13.9 90 0.599999
      vertex -13.9 90 -0.599999
      vertex -38.1 90 0.599999
    endloop
  endfacet
  facet normal 0 1 0
    outer loop
      vertex -37.5 90 2.19999
      vertex -37.5 90 1.99999
      vertex -38.1 90 2.19999
    endloop
  endfacet
  facet normal 0 1 -0
    outer loop
      vertex -38.1 90 2.19999
      vertex -39.9 90 2.2
      vertex -38.1 90 2.2
    endloop
  endfacet
  facet normal 0 1 0
    outer loop
      vertex -38.1 90 1.4
      vertex -38.1 90 2.19999
      vertex -37.5 90 1.99999
    endloop
  endfacet
  facet normal 0 1 0
    outer loop
      vertex -38.1 90 2.19999
      vertex -38.1 90 1.4
      vertex -39.9 90 2.2
    endloop
  endfacet
  facet normal 0 1 -0
    outer loop
      vertex -38.1 90 0.599999
      vertex -39.9 90 2.2
      vertex -38.1 90 1.4
    endloop
  endfacet
  facet normal 0 1 0
    outer loop
      vertex -38.1 90 0.599999
      vertex -39.9 90 -0.599999
      vertex -39.9 90 2.2
    endloop
  endfacet
  facet normal 0 1 0
    outer loop
      vertex -39.9 90 -0.599999
      vertex -38.1 90 0.599999
      vertex -13.9 90 -0.599999
    endloop
  endfacet
  facet normal 0 0 -1
    outer loop
      vertex -39.9 -90 -0.599999
      vertex -13.9 -81.5 -0.599999
      vertex -13.9 -90 -0.599999
    endloop
  endfacet
  facet normal -0 0 -1
    outer loop
      vertex -13.9 -81.5 -0.599999
      vertex -39.9 -90 -0.599999
      vertex -39.9 -81.5 -0.599999
    endloop
  endfacet
  facet normal 0 0 -1
    outer loop
      vertex -39.9 81.5 -0.599999
      vertex -13.9 90 -0.599999
      vertex -13.9 81.5 -0.599999
    endloop
  endfacet
  facet normal -0 0 -1
    outer loop
      vertex -13.9 90 -0.599999
      vertex -39.9 81.5 -0.599999
      vertex -39.9 90 -0.599999
    endloop
  endfacet
  facet normal 0 0 -1
    outer loop
      vertex -39.9 -78.5 -0.599999
      vertex -13.9 -65.5 -0.599999
      vertex -13.9 -78.5 -0.599999
    endloop
  endfacet
  facet normal -0 0 -1
    outer loop
      vertex -13.9 -65.5 -0.599999
      vertex -39.9 -78.5 -0.599999
      vertex -39.9 -65.5 -0.599999
    endloop
  endfacet
  facet normal 0 0 -1
    outer loop
      vertex -39.9 -62.5 -0.599999
      vertex -13.9 -49.5 -0.599999
      vertex -13.9 -62.5 -0.599999
    endloop
  endfacet
  facet normal -0 0 -1
    outer loop
      vertex -13.9 -49.5 -0.599999
      vertex -39.9 -62.5 -0.599999
      vertex -39.9 -49.5 -0.599999
    endloop
  endfacet
  facet normal 0 0 -1
    outer loop
      vertex -39.9 -46.5 -0.599999
      vertex -13.9 -33.5 -0.599999
      vertex -13.9 -46.5 -0.599999
    endloop
  endfacet
  facet normal -0 0 -1
    outer loop
      vertex -13.9 -33.5 -0.599999
      vertex -39.9 -46.5 -0.599999
      vertex -39.9 -33.5 -0.599999
    endloop
  endfacet
  facet normal 0 0 -1
    outer loop
      vertex -39.9 -30.5 -0.599999
      vertex -13.9 -17.5 -0.599999
      vertex -13.9 -30.5 -0.599999
    endloop
  endfacet
  facet normal -0 0 -1
    outer loop
      vertex -13.9 -17.5 -0.599999
      vertex -39.9 -30.5 -0.599999
      vertex -39.9 -17.5 -0.599999
    endloop
  endfacet
  facet normal 0 0 -1
    outer loop
      vertex -39.9 -14.5 -0.599999
      vertex -13.9 -1.5 -0.599999
      vertex -13.9 -14.5 -0.599999
    endloop
  endfacet
  facet normal -0 0 -1
    outer loop
      vertex -13.9 -1.5 -0.599999
      vertex -39.9 -14.5 -0.599999
      vertex -39.9 -1.5 -0.599999
    endloop
  endfacet
  facet normal 0 0 -1
    outer loop
      vertex -39.9 1.5 -0.599999
      vertex -13.9 14.5 -0.599999
      vertex -13.9 1.5 -0.599999
    endloop
  endfacet
  facet normal -0 0 -1
    outer loop
      vertex -13.9 14.5 -0.599999
      vertex -39.9 1.5 -0.599999
      vertex -39.9 14.5 -0.599999
    endloop
  endfacet
  facet normal 0 0 -1
    outer loop
      vertex -39.9 17.5 -0.599999
      vertex -13.9 30.5 -0.599999
      vertex -13.9 17.5 -0.599999
    endloop
  endfacet
  facet normal -0 0 -1
    outer loop
      vertex -13.9 30.5 -0.599999
      vertex -39.9 17.5 -0.599999
      vertex -39.9 30.5 -0.599999
    endloop
  endfacet
  facet normal 0 0 -1
    outer loop
      vertex -39.9 33.5 -0.599999
      vertex -13.9 46.5 -0.599999
      vertex -13.9 33.5 -0.599999
    endloop
  endfacet
  facet normal -0 0 -1
    outer loop
      vertex -13.9 46.5 -0.599999
      vertex -39.9 33.5 -0.599999
      vertex -39.9 46.5 -0.599999
    endloop
  endfacet
  facet normal 0 0 -1
    outer loop
      vertex -39.9 49.5 -0.599999
      vertex -13.9 62.5 -0.599999
      vertex -13.9 49.5 -0.599999
    endloop
  endfacet
  facet normal -0 0 -1
    outer loop
      vertex -13.9 62.5 -0.599999
      vertex -39.9 49.5 -0.599999
      vertex -39.9 62.5 -0.599999
    endloop
  endfacet
  facet normal 0 0 -1
    outer loop
      vertex -39.9 65.5 -0.599999
      vertex -13.9 78.5 -0.599999
      vertex -13.9 65.5 -0.599999
    endloop
  endfacet
  facet normal -0 0 -1
    outer loop
      vertex -13.9 78.5 -0.599999
      vertex -39.9 65.5 -0.599999
      vertex -39.9 78.5 -0.599999
    endloop
  endfacet
  facet normal 0 -1 0
    outer loop
      vertex -39.9 -90 2.2
      vertex -38.1 -90 2.19999
      vertex -38.1 -90 2.2
    endloop
  endfacet
  facet normal 0 -1 0
    outer loop
      vertex -38.1 -90 2.19999
      vertex -37.5 -90 1.99999
      vertex -37.5 -90 2.19999
    endloop
  endfacet
  facet normal 0 -1 0
    outer loop
      vertex -38.1 -90 1.4
      vertex -38.1 -90 2.19999
      vertex -39.9 -90 2.2
    endloop
  endfacet
  facet normal 0 -1 0
    outer loop
      vertex -38.1 -90 2.19999
      vertex -38.1 -90 1.4
      vertex -37.5 -90 1.99999
    endloop
  endfacet
  facet normal 0 -1 0
    outer loop
      vertex -39.9 -90 2.2
      vertex -38.1 -90 0.599999
      vertex -38.1 -90 1.4
    endloop
  endfacet
  facet normal 0 -1 0
    outer loop
      vertex -39.9 -90 -0.599999
      vertex -38.1 -90 0.599999
      vertex -39.9 -90 2.2
    endloop
  endfacet
  facet normal 0 -1 0
    outer loop
      vertex -13.9 -90 -0.599999
      vertex -38.1 -90 0.599999
      vertex -39.9 -90 -0.599999
    endloop
  endfacet
  facet normal 0 -1 0
    outer loop
      vertex -38.1 -90 0.599999
      vertex -13.9 -90 -0.599999
      vertex -13.9 -90 0.599999
    endloop
  endfacet
  facet normal -0 0 1
    outer loop
      vertex -38.1 90 2.19999
      vertex -37.5 -90 2.19999
      vertex -37.5 90 2.19999
    endloop
  endfacet
  facet normal 0 0 1
    outer loop
      vertex -37.5 -90 2.19999
      vertex -38.1 90 2.19999
      vertex -38.1 -90 2.19999
    endloop
  endfacet
  facet normal 1 -0 0
    outer loop
      vertex -37.5 -90 2.19999
      vertex -37.5 90 1.99999
      vertex -37.5 90 2.19999
    endloop
  endfacet
  facet normal 1 0 0
    outer loop
      vertex -37.5 90 1.99999
      vertex -37.5 -90 2.19999
      vertex -37.5 -90 1.99999
    endloop
  endfacet
  facet normal 0.707107 0 -0.707107
    outer loop
      vertex -37.5 -90 1.99999
      vertex -38.1 90 1.4
      vertex -37.5 90 1.99999
    endloop
  endfacet
  facet normal 0.707107 0 -0.707107
    outer loop
      vertex -38.1 90 1.4
      vertex -37.5 -90 1.99999
      vertex -38.1 -90 1.4
    endloop
  endfacet
  facet normal 0 1 0
    outer loop
      vertex -13.9 90 2.19999
      vertex -14.5 90 1.99999
      vertex -14.5 90 2.19999
    endloop
  endfacet
  facet normal -0 1 0
    outer loop
      vertex -14.5 90 1.99999
      vertex -13.9 90 2.19999
      vertex -13.9 90 1.4
    endloop
  endfacet
  facet normal -0 0 1
    outer loop
      vertex -14.5 90 2.19999
      vertex -13.9 -90 2.19999
      vertex -13.9 90 2.19999
    endloop
  endfacet
  facet normal 0 0 1
    outer loop
      vertex -13.9 -90 2.19999
      vertex -14.5 90 2.19999
      vertex -14.5 -90 2.19999
    endloop
  endfacet
  facet normal -0.707107 0 -0.707107
    outer loop
      vertex -13.9 -90 1.4
      vertex -14.5 90 1.99999
      vertex -13.9 90 1.4
    endloop
  endfacet
  facet normal -0.707107 -0 -0.707107
    outer loop
      vertex -14.5 90 1.99999
      vertex -13.9 -90 1.4
      vertex -14.5 -90 1.99999
    endloop
  endfacet
  facet normal 1 -0 0
    outer loop
      vertex -13.9 -90 2.19999
      vertex -13.9 90 1.4
      vertex -13.9 90 2.19999
    endloop
  endfacet
  facet normal 1 0 0
    outer loop
      vertex -13.9 90 1.4
      vertex -13.9 -90 2.19999
      vertex -13.9 -90 1.4
    endloop
  endfacet
  facet normal 0 -1 0
    outer loop
      vertex -14.5 -90 1.99999
      vertex -13.9 -90 2.19999
      vertex -14.5 -90 2.19999
    endloop
  endfacet
  facet normal 0 -1 -0
    outer loop
      vertex -13.9 -90 2.19999
      vertex -14.5 -90 1.99999
      vertex -13.9 -90 1.4
    endloop
  endfacet
  facet normal -1 0 0
    outer loop
      vertex -14.5 -90 1.99999
      vertex -14.5 90 2.19999
      vertex -14.5 90 1.99999
    endloop
  endfacet
  facet normal -1 -0 0
    outer loop
      vertex -14.5 90 2.19999
      vertex -14.5 -90 1.99999
      vertex -14.5 -90 2.19999
    endloop
  endfacet
  facet normal -1 0 0
    outer loop
      vertex -39.9 -81.5 -0.599999
      vertex -39.9 -90 -0.599999
      vertex -39.9 -81.5 0
    endloop
  endfacet
  facet normal -1 0 0
    outer loop
      vertex -39.9 -65.5 -0.599999
      vertex -39.9 -78.5 -0.599999
      vertex -39.9 -65.5 0
    endloop
  endfacet
  facet normal -1 0 0
    outer loop
      vertex -39.9 -49.5 -0.599999
      vertex -39.9 -62.5 -0.599999
      vertex -39.9 -49.5 0
    endloop
  endfacet
  facet normal -1 0 0
    outer loop
      vertex -39.9 -33.5 -0.599999
      vertex -39.9 -46.5 -0.599999
      vertex -39.9 -33.5 0
    endloop
  endfacet
  facet normal -1 0 0
    outer loop
      vertex -39.9 -17.5 -0.599999
      vertex -39.9 -30.5 -0.599999
      vertex -39.9 -17.5 0
    endloop
  endfacet
  facet normal -1 0 0
    outer loop
      vertex -39.9 -1.5 -0.599999
      vertex -39.9 -14.5 -0.599999
      vertex -39.9 -1.5 0
    endloop
  endfacet
  facet normal -1 0 0
    outer loop
      vertex -39.9 14.5 -0.599999
      vertex -39.9 1.5 -0.599999
      vertex -39.9 14.5 0
    endloop
  endfacet
  facet normal -1 0 0
    outer loop
      vertex -39.9 30.5 -0.599999
      vertex -39.9 17.5 -0.599999
      vertex -39.9 30.5 0
    endloop
  endfacet
  facet normal -1 0 0
    outer loop
      vertex -39.9 46.5 -0.599999
      vertex -39.9 33.5 -0.599999
      vertex -39.9 46.5 0
    endloop
  endfacet
  facet normal -1 0 0
    outer loop
      vertex -39.9 62.5 -0.599999
      vertex -39.9 49.5 -0.599999
      vertex -39.9 62.5 0
    endloop
  endfacet
  facet normal -1 0 0
    outer loop
      vertex -39.9 78.5 -0.599999
      vertex -39.9 65.5 -0.599999
      vertex -39.9 78.5 0
    endloop
  endfacet
  facet normal -1 0 0
    outer loop
      vertex -39.9 81.5 0
      vertex -39.9 90 -0.599999
      vertex -39.9 81.5 -0.599999
    endloop
  endfacet
  facet normal -1 0 0
    outer loop
      vertex -39.9 90 -0.599999
      vertex -39.9 81.5 0
      vertex -39.9 90 2.2
    endloop
  endfacet
  facet normal -1 0 0
    outer loop
      vertex -39.9 78.5 0
      vertex -39.9 90 2.2
      vertex -39.9 81.5 0
    endloop
  endfacet
  facet normal -1 0 0
    outer loop
      vertex -39.9 65.5 0
      vertex -39.9 78.5 0
      vertex -39.9 65.5 -0.599999
    endloop
  endfacet
  facet normal -1 0 0
    outer loop
      vertex -39.9 78.5 0
      vertex -39.9 65.5 0
      vertex -39.9 90 2.2
    endloop
  endfacet
  facet normal -1 0 0
    outer loop
      vertex -39.9 62.5 0
      vertex -39.9 90 2.2
      vertex -39.9 65.5 0
    endloop
  endfacet
  facet normal -1 0 0
    outer loop
      vertex -39.9 49.5 0
      vertex -39.9 62.5 0
      vertex -39.9 49.5 -0.599999
    endloop
  endfacet
  facet normal -1 0 0
    outer loop
      vertex -39.9 62.5 0
      vertex -39.9 49.5 0
      vertex -39.9 90 2.2
    endloop
  endfacet
  facet normal -1 0 0
    outer loop
      vertex -39.9 46.5 0
      vertex -39.9 90 2.2
      vertex -39.9 49.5 0
    endloop
  endfacet
  facet normal -1 0 0
    outer loop
      vertex -39.9 33.5 0
      vertex -39.9 46.5 0
      vertex -39.9 33.5 -0.599999
    endloop
  endfacet
  facet normal -1 0 0
    outer loop
      vertex -39.9 46.5 0
      vertex -39.9 33.5 0
      vertex -39.9 90 2.2
    endloop
  endfacet
  facet normal -1 0 0
    outer loop
      vertex -39.9 30.5 0
      vertex -39.9 90 2.2
      vertex -39.9 33.5 0
    endloop
  endfacet
  facet normal -1 0 0
    outer loop
      vertex -39.9 17.5 0
      vertex -39.9 30.5 0
      vertex -39.9 17.5 -0.599999
    endloop
  endfacet
  facet normal -1 0 0
    outer loop
      vertex -39.9 17.5 0
      vertex -39.9 90 2.2
      vertex -39.9 30.5 0
    endloop
  endfacet
  facet normal -1 0 0
    outer loop
      vertex -39.9 14.5 0
      vertex -39.9 90 2.2
      vertex -39.9 17.5 0
    endloop
  endfacet
  facet normal -1 0 0
    outer loop
      vertex -39.9 1.5 0
      vertex -39.9 14.5 0
      vertex -39.9 1.5 -0.599999
    endloop
  endfacet
  facet normal -1 0 0
    outer loop
      vertex -39.9 1.5 0
      vertex -39.9 90 2.2
      vertex -39.9 14.5 0
    endloop
  endfacet
  facet normal -1 0 0
    outer loop
      vertex -39.9 -1.5 0
      vertex -39.9 90 2.2
      vertex -39.9 1.5 0
    endloop
  endfacet
  facet normal -1 0 0
    outer loop
      vertex -39.9 -14.5 0
      vertex -39.9 -1.5 0
      vertex -39.9 -14.5 -0.599999
    endloop
  endfacet
  facet normal -1 0 0
    outer loop
      vertex -39.9 -14.5 0
      vertex -39.9 90 2.2
      vertex -39.9 -1.5 0
    endloop
  endfacet
  facet normal -1 0 0
    outer loop
      vertex -39.9 -17.5 0
      vertex -39.9 90 2.2
      vertex -39.9 -14.5 0
    endloop
  endfacet
  facet normal -1 0 0
    outer loop
      vertex -39.9 -30.5 0
      vertex -39.9 -17.5 0
      vertex -39.9 -30.5 -0.599999
    endloop
  endfacet
  facet normal -1 0 0
    outer loop
      vertex -39.9 -90 2.2
      vertex -39.9 -17.5 0
      vertex -39.9 -30.5 0
    endloop
  endfacet
  facet normal -1 0 0
    outer loop
      vertex -39.9 -90 2.2
      vertex -39.9 -30.5 0
      vertex -39.9 -33.5 0
    endloop
  endfacet
  facet normal -1 0 0
    outer loop
      vertex -39.9 -46.5 0
      vertex -39.9 -33.5 0
      vertex -39.9 -46.5 -0.599999
    endloop
  endfacet
  facet normal -1 0 0
    outer loop
      vertex -39.9 -90 2.2
      vertex -39.9 -33.5 0
      vertex -39.9 -46.5 0
    endloop
  endfacet
  facet normal -1 0 0
    outer loop
      vertex -39.9 -90 2.2
      vertex -39.9 -46.5 0
      vertex -39.9 -49.5 0
    endloop
  endfacet
  facet normal -1 0 0
    outer loop
      vertex -39.9 -62.5 0
      vertex -39.9 -49.5 0
      vertex -39.9 -62.5 -0.599999
    endloop
  endfacet
  facet normal -1 0 0
    outer loop
      vertex -39.9 -90 2.2
      vertex -39.9 -49.5 0
      vertex -39.9 -62.5 0
    endloop
  endfacet
  facet normal -1 0 0
    outer loop
      vertex -39.9 -90 2.2
      vertex -39.9 -62.5 0
      vertex -39.9 -65.5 0
    endloop
  endfacet
  facet normal -1 0 0
    outer loop
      vertex -39.9 -78.5 0
      vertex -39.9 -65.5 0
      vertex -39.9 -78.5 -0.599999
    endloop
  endfacet
  facet normal -1 0 0
    outer loop
      vertex -39.9 -90 2.2
      vertex -39.9 -65.5 0
      vertex -39.9 -78.5 0
    endloop
  endfacet
  facet normal -1 0 0
    outer loop
      vertex -39.9 -90 2.2
      vertex -39.9 -78.5 0
      vertex -39.9 -81.5 0
    endloop
  endfacet
  facet normal -1 0 0
    outer loop
      vertex -39.9 -17.5 0
      vertex -39.9 -90 2.2
      vertex -39.9 90 2.2
    endloop
  endfacet
  facet normal -1 0 0
    outer loop
      vertex -39.9 -90 2.2
      vertex -39.9 -81.5 0
      vertex -39.9 -90 -0.599999
    endloop
  endfacet
  facet normal -0 0 1
    outer loop
      vertex -39.9 90 2.2
      vertex -38.1 -90 2.2
      vertex -38.1 90 2.2
    endloop
  endfacet
  facet normal 0 0 1
    outer loop
      vertex -38.1 -90 2.2
      vertex -39.9 90 2.2
      vertex -39.9 -90 2.2
    endloop
  endfacet
  facet normal 1 -0 0
    outer loop
      vertex -12.1 -90 2.2
      vertex -12.1 90 2.19999
      vertex -12.1 90 2.2
    endloop
  endfacet
  facet normal 1 0 0
    outer loop
      vertex -12.1 90 2.19999
      vertex -12.1 -90 2.2
      vertex -12.1 -90 2.19999
    endloop
  endfacet
  facet normal 1 -0 0
    outer loop
      vertex -12.1 -90 1.4
      vertex -12.1 90 0.599999
      vertex -12.1 90 1.4
    endloop
  endfacet
  facet normal 1 0 0
    outer loop
      vertex -12.1 90 0.599999
      vertex -12.1 -90 1.4
      vertex -12.1 -90 0.599999
    endloop
  endfacet
  facet normal -0 0 1
    outer loop
      vertex -12.1 90 0.599999
      vertex 12.1 -90 0.599999
      vertex 12.1 90 0.599999
    endloop
  endfacet
  facet normal 0 0 1
    outer loop
      vertex 12.1 -90 0.599999
      vertex -12.1 90 0.599999
      vertex -12.1 -90 0.599999
    endloop
  endfacet
  facet normal -1 0 0
    outer loop
      vertex 12.1 -90 2.19999
      vertex 12.1 90 2.2
      vertex 12.1 90 2.19999
    endloop
  endfacet
  facet normal -1 -0 0
    outer loop
      vertex 12.1 90 2.2
      vertex 12.1 -90 2.19999
      vertex 12.1 -90 2.2
    endloop
  endfacet
  facet normal -1 0 0
    outer loop
      vertex 12.1 -90 0.599999
      vertex 12.1 90 1.4
      vertex 12.1 90 0.599999
    endloop
  endfacet
  facet normal -1 -0 0
    outer loop
      vertex 12.1 90 1.4
      vertex 12.1 -90 0.599999
      vertex 12.1 -90 1.4
    endloop
  endfacet
  facet normal 0 1 0
    outer loop
      vertex 13.9 90 2.2
      vertex 12.1 90 2.19999
      vertex 12.1 90 2.2
    endloop
  endfacet
  facet normal 0 1 0
    outer loop
      vertex 12.1 90 2.19999
      vertex 11.5 90 1.99999
      vertex 11.5 90 2.19999
    endloop
  endfacet
  facet normal 0 1 0
    outer loop
      vertex 12.1 90 1.4
      vertex 12.1 90 2.19999
      vertex 13.9 90 2.2
    endloop
  endfacet
  facet normal 0 1 0
    outer loop
      vertex 12.1 90 2.19999
      vertex 12.1 90 1.4
      vertex 11.5 90 1.99999
    endloop
  endfacet
  facet normal 0 1 0
    outer loop
      vertex 13.9 90 2.2
      vertex 12.1 90 0.599999
      vertex 12.1 90 1.4
    endloop
  endfacet
  facet normal 0 1 0
    outer loop
      vertex 12.1 90 0.599999
      vertex 13.9 90 -0.599999
      vertex -12.1 90 0.599999
    endloop
  endfacet
  facet normal 0 1 -0
    outer loop
      vertex 13.9 90 -0.599999
      vertex 12.1 90 0.599999
      vertex 13.9 90 2.2
    endloop
  endfacet
  facet normal 0 1 0
    outer loop
      vertex -11.5 90 2.19999
      vertex -11.5 90 1.99999
      vertex -12.1 90 2.19999
    endloop
  endfacet
  facet normal 0 1 -0
    outer loop
      vertex -12.1 90 2.19999
      vertex -13.9 90 2.2
      vertex -12.1 90 2.2
    endloop
  endfacet
  facet normal 0 1 0
    outer loop
      vertex -12.1 90 1.4
      vertex -12.1 90 2.19999
      vertex -11.5 90 1.99999
    endloop
  endfacet
  facet normal 0 1 0
    outer loop
      vertex -12.1 90 2.19999
      vertex -12.1 90 1.4
      vertex -13.9 90 2.2
    endloop
  endfacet
  facet normal 0 1 -0
    outer loop
      vertex -12.1 90 0.599999
      vertex -13.9 90 2.2
      vertex -12.1 90 1.4
    endloop
  endfacet
  facet normal 0 1 0
    outer loop
      vertex -12.1 90 0.599999
      vertex -13.9 90 -0.599999
      vertex -13.9 90 2.2
    endloop
  endfacet
  facet normal 0 1 0
    outer loop
      vertex -13.9 90 -0.599999
      vertex -12.1 90 0.599999
      vertex 13.9 90 -0.599999
    endloop
  endfacet
  facet normal 0 0 -1
    outer loop
      vertex -13.9 -90 -0.599999
      vertex 13.9 -81.5 -0.599999
      vertex 13.9 -90 -0.599999
    endloop
  endfacet
  facet normal -0 0 -1
    outer loop
      vertex 13.9 -81.5 -0.599999
      vertex -13.9 -90 -0.599999
      vertex -13.9 -81.5 -0.599999
    endloop
  endfacet
  facet normal 0 0 -1
    outer loop
      vertex -13.9 81.5 -0.599999
      vertex 13.9 90 -0.599999
      vertex 13.9 81.5 -0.599999
    endloop
  endfacet
  facet normal -0 0 -1
    outer loop
      vertex 13.9 90 -0.599999
      vertex -13.9 81.5 -0.599999
      vertex -13.9 90 -0.599999
    endloop
  endfacet
  facet normal 0 0 -1
    outer loop
      vertex -13.9 -78.5 -0.599999
      vertex 13.9 -65.5 -0.599999
      vertex 13.9 -78.5 -0.599999
    endloop
  endfacet
  facet normal -0 0 -1
    outer loop
      vertex 13.9 -65.5 -0.599999
      vertex -13.9 -78.5 -0.599999
      vertex -13.9 -65.5 -0.599999
    endloop
  endfacet
  facet normal 0 0 -1
    outer loop
      vertex -13.9 -62.5 -0.599999
      vertex 13.9 -49.5 -0.599999
      vertex 13.9 -62.5 -0.599999
    endloop
  endfacet
  facet normal -0 0 -1
    outer loop
      vertex 13.9 -49.5 -0.599999
      vertex -13.9 -62.5 -0.599999
      vertex -13.9 -49.5 -0.599999
    endloop
  endfacet
  facet normal 0 0 -1
    outer loop
      vertex -13.9 -46.5 -0.599999
      vertex 13.9 -33.5 -0.599999
      vertex 13.9 -46.5 -0.599999
    endloop
  endfacet
  facet normal -0 0 -1
    outer loop
      vertex 13.9 -33.5 -0.599999
      vertex -13.9 -46.5 -0.599999
      vertex -13.9 -33.5 -0.599999
    endloop
  endfacet
  facet normal 0 0 -1
    outer loop
      vertex -13.9 -30.5 -0.599999
      vertex 13.9 -17.5 -0.599999
      vertex 13.9 -30.5 -0.599999
    endloop
  endfacet
  facet normal -0 0 -1
    outer loop
      vertex 13.9 -17.5 -0.599999
      vertex -13.9 -30.5 -0.599999
      vertex -13.9 -17.5 -0.599999
    endloop
  endfacet
  facet normal 0 0 -1
    outer loop
      vertex -13.9 -14.5 -0.599999
      vertex 13.9 -1.5 -0.599999
      vertex 13.9 -14.5 -0.599999
    endloop
  endfacet
  facet normal -0 0 -1
    outer loop
      vertex 13.9 -1.5 -0.599999
      vertex -13.9 -14.5 -0.599999
      vertex -13.9 -1.5 -0.599999
    endloop
  endfacet
  facet normal 0 0 -1
    outer loop
      vertex -13.9 1.5 -0.599999
      vertex 13.9 14.5 -0.599999
      vertex 13.9 1.5 -0.599999
    endloop
  endfacet
  facet normal -0 0 -1
    outer loop
      vertex 13.9 14.5 -0.599999
      vertex -13.9 1.5 -0.599999
      vertex -13.9 14.5 -0.599999
    endloop
  endfacet
  facet normal 0 0 -1
    outer loop
      vertex -13.9 17.5 -0.599999
      vertex 13.9 30.5 -0.599999
      vertex 13.9 17.5 -0.599999
    endloop
  endfacet
  facet normal -0 0 -1
    outer loop
      vertex 13.9 30.5 -0.599999
      vertex -13.9 17.5 -0.599999
      vertex -13.9 30.5 -0.599999
    endloop
  endfacet
  facet normal 0 0 -1
    outer loop
      vertex -13.9 33.5 -0.599999
      vertex 13.9 46.5 -0.599999
      vertex 13.9 33.5 -0.599999
    endloop
  endfacet
  facet normal -0 0 -1
    outer loop
      vertex 13.9 46.5 -0.599999
      vertex -13.9 33.5 -0.599999
      vertex -13.9 46.5 -0.599999
    endloop
  endfacet
  facet normal 0 0 -1
    outer loop
      vertex -13.9 49.5 -0.599999
      vertex 13.9 62.5 -0.599999
      vertex 13.9 49.5 -0.599999
    endloop
  endfacet
  facet normal -0 0 -1
    outer loop
      vertex 13.9 62.5 -0.599999
      vertex -13.9 49.5 -0.599999
      vertex -13.9 62.5 -0.599999
    endloop
  endfacet
  facet normal 0 0 -1
    outer loop
      vertex -13.9 65.5 -0.599999
      vertex 13.9 78.5 -0.599999
      vertex 13.9 65.5 -0.599999
    endloop
  endfacet
  facet normal -0 0 -1
    outer loop
      vertex 13.9 78.5 -0.599999
      vertex -13.9 65.5 -0.599999
      vertex -13.9 78.5 -0.599999
    endloop
  endfacet
  facet normal 0 -1 0
    outer loop
      vertex -13.9 -90 2.2
      vertex -12.1 -90 2.19999
      vertex -12.1 -90 2.2
    endloop
  endfacet
  facet normal 0 -1 0
    outer loop
      vertex -12.1 -90 2.19999
      vertex -11.5 -90 1.99999
      vertex -11.5 -90 2.19999
    endloop
  endfacet
  facet normal 0 -1 0
    outer loop
      vertex -12.1 -90 1.4
      vertex -12.1 -90 2.19999
      vertex -13.9 -90 2.2
    endloop
  endfacet
  facet normal 0 -1 0
    outer loop
      vertex -12.1 -90 2.19999
      vertex -12.1 -90 1.4
      vertex -11.5 -90 1.99999
    endloop
  endfacet
  facet normal 0 -1 0
    outer loop
      vertex -13.9 -90 2.2
      vertex -12.1 -90 0.599999
      vertex -12.1 -90 1.4
    endloop
  endfacet
  facet normal 0 -1 -0
    outer loop
      vertex -12.1 -90 0.599999
      vertex -13.9 -90 -0.599999
      vertex 12.1 -90 0.599999
    endloop
  endfacet
  facet normal 0 -1 0
    outer loop
      vertex -13.9 -90 -0.599999
      vertex -12.1 -90 0.599999
      vertex -13.9 -90 2.2
    endloop
  endfacet
  facet normal 0 -1 0
    outer loop
      vertex 11.5 -90 2.19999
      vertex 11.5 -90 1.99999
      vertex 12.1 -90 2.19999
    endloop
  endfacet
  facet normal 0 -1 0
    outer loop
      vertex 12.1 -90 2.19999
      vertex 13.9 -90 2.2
      vertex 12.1 -90 2.2
    endloop
  endfacet
  facet normal 0 -1 0
    outer loop
      vertex 12.1 -90 1.4
      vertex 12.1 -90 2.19999
      vertex 11.5 -90 1.99999
    endloop
  endfacet
  facet normal 0 -1 0
    outer loop
      vertex 12.1 -90 2.19999
      vertex 12.1 -90 1.4
      vertex 13.9 -90 2.2
    endloop
  endfacet
  facet normal 0 -1 0
    outer loop
      vertex 12.1 -90 0.599999
      vertex 13.9 -90 2.2
      vertex 12.1 -90 1.4
    endloop
  endfacet
  facet normal 0 -1 0
    outer loop
      vertex 12.1 -90 0.599999
      vertex 13.9 -90 -0.599999
      vertex 13.9 -90 2.2
    endloop
  endfacet
  facet normal 0 -1 0
    outer loop
      vertex 13.9 -90 -0.599999
      vertex 12.1 -90 0.599999
      vertex -13.9 -90 -0.599999
    endloop
  endfacet
  facet normal -0 0 1
    outer loop
      vertex -12.1 90 2.19999
      vertex -11.5 -90 2.19999
      vertex -11.5 90 2.19999
    endloop
  endfacet
  facet normal 0 0 1
    outer loop
      vertex -11.5 -90 2.19999
      vertex -12.1 90 2.19999
      vertex -12.1 -90 2.19999
    endloop
  endfacet
  facet normal 1 -0 0
    outer loop
      vertex -11.5 -90 2.19999
      vertex -11.5 90 1.99999
      vertex -11.5 90 2.19999
    endloop
  endfacet
  facet normal 1 0 0
    outer loop
      vertex -11.5 90 1.99999
      vertex -11.5 -90 2.19999
      vertex -11.5 -90 1.99999
    endloop
  endfacet
  facet normal 0.707107 0 -0.707107
    outer loop
      vertex -11.5 -90 1.99999
      vertex -12.1 90 1.4
      vertex -11.5 90 1.99999
    endloop
  endfacet
  facet normal 0.707107 0 -0.707107
    outer loop
      vertex -12.1 90 1.4
      vertex -11.5 -90 1.99999
      vertex -12.1 -90 1.4
    endloop
  endfacet
  facet normal -0 0 1
    outer loop
      vertex 11.5 90 2.19999
      vertex 12.1 -90 2.19999
      vertex 12.1 90 2.19999
    endloop
  endfacet
  facet normal 0 0 1
    outer loop
      vertex 12.1 -90 2.19999
      vertex 11.5 90 2.19999
      vertex 11.5 -90 2.19999
    endloop
  endfacet
  facet normal -0.707107 0 -0.707107
    outer loop
      vertex 12.1 -90 1.4
      vertex 11.5 90 1.99999
      vertex 12.1 90 1.4
    endloop
  endfacet
  facet normal -0.707107 -0 -0.707107
    outer loop
      vertex 11.5 90 1.99999
      vertex 12.1 -90 1.4
      vertex 11.5 -90 1.99999
    endloop
  endfacet
  facet normal -1 0 0
    outer loop
      vertex 11.5 -90 1.99999
      vertex 11.5 90 2.19999
      vertex 11.5 90 1.99999
    endloop
  endfacet
  facet normal -1 -0 0
    outer loop
      vertex 11.5 90 2.19999
      vertex 11.5 -90 1.99999
      vertex 11.5 -90 2.19999
    endloop
  endfacet
  facet normal -1 0 0
    outer loop
      vertex -13.9 -81.5 -0.599999
      vertex -13.9 -90 -0.599999
      vertex -13.9 -81.5 0
    endloop
  endfacet
  facet normal -1 0 0
    outer loop
      vertex -13.9 -65.5 -0.599999
      vertex -13.9 -78.5 -0.599999
      vertex -13.9 -65.5 0
    endloop
  endfacet
  facet normal -1 0 0
    outer loop
      vertex -13.9 -49.5 -0.599999
      vertex -13.9 -62.5 -0.599999
      vertex -13.9 -49.5 0
    endloop
  endfacet
  facet normal -1 0 0
    outer loop
      vertex -13.9 -33.5 -0.599999
      vertex -13.9 -46.5 -0.599999
      vertex -13.9 -33.5 0
    endloop
  endfacet
  facet normal -1 0 0
    outer loop
      vertex -13.9 -17.5 -0.599999
      vertex -13.9 -30.5 -0.599999
      vertex -13.9 -17.5 0
    endloop
  endfacet
  facet normal -1 0 0
    outer loop
      vertex -13.9 -1.5 -0.599999
      vertex -13.9 -14.5 -0.599999
      vertex -13.9 -1.5 0
    endloop
  endfacet
  facet normal -1 0 0
    outer loop
      vertex -13.9 14.5 -0.599999
      vertex -13.9 1.5 -0.599999
      vertex -13.9 14.5 0
    endloop
  endfacet
  facet normal -1 0 0
    outer loop
      vertex -13.9 30.5 -0.599999
      vertex -13.9 17.5 -0.599999
      vertex -13.9 30.5 0
    endloop
  endfacet
  facet normal -1 0 0
    outer loop
      vertex -13.9 46.5 -0.599999
      vertex -13.9 33.5 -0.599999
      vertex -13.9 46.5 0
    endloop
  endfacet
  facet normal -1 0 0
    outer loop
      vertex -13.9 62.5 -0.599999
      vertex -13.9 49.5 -0.599999
      vertex -13.9 62.5 0
    endloop
  endfacet
  facet normal -1 0 0
    outer loop
      vertex -13.9 78.5 -0.599999
      vertex -13.9 65.5 -0.599999
      vertex -13.9 78.5 0
    endloop
  endfacet
  facet normal -1 0 0
    outer loop
      vertex -13.9 81.5 0
      vertex -13.9 90 -0.599999
      vertex -13.9 81.5 -0.599999
    endloop
  endfacet
  facet normal -1 0 0
    outer loop
      vertex -13.9 90 -0.599999
      vertex -13.9 81.5 0
      vertex -13.9 90 2.2
    endloop
  endfacet
  facet normal -1 0 0
    outer loop
      vertex -13.9 78.5 0
      vertex -13.9 90 2.2
      vertex -13.9 81.5 0
    endloop
  endfacet
  facet normal -1 0 0
    outer loop
      vertex -13.9 65.5 0
      vertex -13.9 78.5 0
      vertex -13.9 65.5 -0.599999
    endloop
  endfacet
  facet normal -1 0 0
    outer loop
      vertex -13.9 78.5 0
      vertex -13.9 65.5 0
      vertex -13.9 90 2.2
    endloop
  endfacet
  facet normal -1 0 0
    outer loop
      vertex -13.9 62.5 0
      vertex -13.9 90 2.2
      vertex -13.9 65.5 0
    endloop
  endfacet
  facet normal -1 0 0
    outer loop
      vertex -13.9 49.5 0
      vertex -13.9 62.5 0
      vertex -13.9 49.5 -0.599999
    endloop
  endfacet
  facet normal -1 0 0
    outer loop
      vertex -13.9 62.5 0
      vertex -13.9 49.5 0
      vertex -13.9 90 2.2
    endloop
  endfacet
  facet normal -1 0 0
    outer loop
      vertex -13.9 46.5 0
      vertex -13.9 90 2.2
      vertex -13.9 49.5 0
    endloop
  endfacet
  facet normal -1 0 0
    outer loop
      vertex -13.9 33.5 0
      vertex -13.9 46.5 0
      vertex -13.9 33.5 -0.599999
    endloop
  endfacet
  facet normal -1 0 0
    outer loop
      vertex -13.9 46.5 0
      vertex -13.9 33.5 0
      vertex -13.9 90 2.2
    endloop
  endfacet
  facet normal -1 0 0
    outer loop
      vertex -13.9 30.5 0
      vertex -13.9 90 2.2
      vertex -13.9 33.5 0
    endloop
  endfacet
  facet normal -1 0 0
    outer loop
      vertex -13.9 17.5 0
      vertex -13.9 30.5 0
      vertex -13.9 17.5 -0.599999
    endloop
  endfacet
  facet normal -1 0 0
    outer loop
      vertex -13.9 17.5 0
      vertex -13.9 90 2.2
      vertex -13.9 30.5 0
    endloop
  endfacet
  facet normal -1 0 0
    outer loop
      vertex -13.9 14.5 0
      vertex -13.9 90 2.2
      vertex -13.9 17.5 0
    endloop
  endfacet
  facet normal -1 0 0
    outer loop
      vertex -13.9 1.5 0
      vertex -13.9 14.5 0
      vertex -13.9 1.5 -0.599999
    endloop
  endfacet
  facet normal -1 0 0
    outer loop
      vertex -13.9 1.5 0
      vertex -13.9 90 2.2
      vertex -13.9 14.5 0
    endloop
  endfacet
  facet normal -1 0 0
    outer loop
      vertex -13.9 -1.5 0
      vertex -13.9 90 2.2
      vertex -13.9 1.5 0
    endloop
  endfacet
  facet normal -1 0 0
    outer loop
      vertex -13.9 -14.5 0
      vertex -13.9 -1.5 0
      vertex -13.9 -14.5 -0.599999
    endloop
  endfacet
  facet normal -1 0 0
    outer loop
      vertex -13.9 -14.5 0
      vertex -13.9 90 2.2
      vertex -13.9 -1.5 0
    endloop
  endfacet
  facet normal -1 0 0
    outer loop
      vertex -13.9 -17.5 0
      vertex -13.9 90 2.2
      vertex -13.9 -14.5 0
    endloop
  endfacet
  facet normal -1 0 0
    outer loop
      vertex -13.9 -30.5 0
      vertex -13.9 -17.5 0
      vertex -13.9 -30.5 -0.599999
    endloop
  endfacet
  facet normal -1 0 0
    outer loop
      vertex -13.9 -90 2.2
      vertex -13.9 -17.5 0
      vertex -13.9 -30.5 0
    endloop
  endfacet
  facet normal -1 0 0
    outer loop
      vertex -13.9 -90 2.2
      vertex -13.9 -30.5 0
      vertex -13.9 -33.5 0
    endloop
  endfacet
  facet normal -1 0 0
    outer loop
      vertex -13.9 -46.5 0
      vertex -13.9 -33.5 0
      vertex -13.9 -46.5 -0.599999
    endloop
  endfacet
  facet normal -1 0 0
    outer loop
      vertex -13.9 -90 2.2
      vertex -13.9 -33.5 0
      vertex -13.9 -46.5 0
    endloop
  endfacet
  facet normal -1 0 0
    outer loop
      vertex -13.9 -90 2.2
      vertex -13.9 -46.5 0
      vertex -13.9 -49.5 0
    endloop
  endfacet
  facet normal -1 0 0
    outer loop
      vertex -13.9 -62.5 0
      vertex -13.9 -49.5 0
      vertex -13.9 -62.5 -0.599999
    endloop
  endfacet
  facet normal -1 0 0
    outer loop
      vertex -13.9 -90 2.2
      vertex -13.9 -49.5 0
      vertex -13.9 -62.5 0
    endloop
  endfacet
  facet normal -1 0 0
    outer loop
      vertex -13.9 -90 2.2
      vertex -13.9 -62.5 0
      vertex -13.9 -65.5 0
    endloop
  endfacet
  facet normal -1 0 0
    outer loop
      vertex -13.9 -78.5 0
      vertex -13.9 -65.5 0
      vertex -13.9 -78.5 -0.599999
    endloop
  endfacet
  facet normal -1 0 0
    outer loop
      vertex -13.9 -90 2.2
      vertex -13.9 -65.5 0
      vertex -13.9 -78.5 0
    endloop
  endfacet
  facet normal -1 0 0
    outer loop
      vertex -13.9 -90 2.2
      vertex -13.9 -78.5 0
      vertex -13.9 -81.5 0
    endloop
  endfacet
  facet normal -1 0 0
    outer loop
      vertex -13.9 -17.5 0
      vertex -13.9 -90 2.2
      vertex -13.9 90 2.2
    endloop
  endfacet
  facet normal -1 0 0
    outer loop
      vertex -13.9 -90 2.2
      vertex -13.9 -81.5 0
      vertex -13.9 -90 -0.599999
    endloop
  endfacet
  facet normal -0 0 1
    outer loop
      vertex -13.9 90 2.2
      vertex -12.1 -90 2.2
      vertex -12.1 90 2.2
    endloop
  endfacet
  facet normal 0 0 1
    outer loop
      vertex -12.1 -90 2.2
      vertex -13.9 90 2.2
      vertex -13.9 -90 2.2
    endloop
  endfacet
  facet normal -0 0 1
    outer loop
      vertex 12.1 90 2.2
      vertex 13.9 -90 2.2
      vertex 13.9 90 2.2
    endloop
  endfacet
  facet normal 0 0 1
    outer loop
      vertex 13.9 -90 2.2
      vertex 12.1 90 2.2
      vertex 12.1 -90 2.2
    endloop
  endfacet
  facet normal 1 0 0
    outer loop
      vertex 13.9 90 2.2
      vertex 13.9 81.5 0
      vertex 13.9 90 -0.599999
    endloop
  endfacet
  facet normal 1 0 0
    outer loop
      vertex 13.9 90 2.2
      vertex 13.9 78.5 0
      vertex 13.9 81.5 0
    endloop
  endfacet
  facet normal 1 0 0
    outer loop
      vertex 13.9 78.5 0
      vertex 13.9 65.5 0
      vertex 13.9 78.5 -0.599999
    endloop
  endfacet
  facet normal 1 0 0
    outer loop
      vertex 13.9 90 2.2
      vertex 13.9 65.5 0
      vertex 13.9 78.5 0
    endloop
  endfacet
  facet normal 1 0 0
    outer loop
      vertex 13.9 90 2.2
      vertex 13.9 62.5 0
      vertex 13.9 65.5 0
    endloop
  endfacet
  facet normal 1 0 0
    outer loop
      vertex 13.9 62.5 0
      vertex 13.9 49.5 0
      vertex 13.9 62.5 -0.599999
    endloop
  endfacet
  facet normal 1 0 0
    outer loop
      vertex 13.9 90 2.2
      vertex 13.9 49.5 0
      vertex 13.9 62.5 0
    endloop
  endfacet
  facet normal 1 0 0
    outer loop
      vertex 13.9 90 2.2
      vertex 13.9 46.5 0
      vertex 13.9 49.5 0
    endloop
  endfacet
  facet normal 1 0 0
    outer loop
      vertex 13.9 46.5 0
      vertex 13.9 33.5 0
      vertex 13.9 46.5 -0.599999
    endloop
  endfacet
  facet normal 1 0 0
    outer loop
      vertex 13.9 90 2.2
      vertex 13.9 33.5 0
      vertex 13.9 46.5 0
    endloop
  endfacet
  facet normal 1 0 0
    outer loop
      vertex 13.9 90 2.2
      vertex 13.9 30.5 0
      vertex 13.9 33.5 0
    endloop
  endfacet
  facet normal 1 0 0
    outer loop
      vertex 13.9 30.5 0
      vertex 13.9 17.5 0
      vertex 13.9 30.5 -0.599999
    endloop
  endfacet
  facet normal 1 0 0
    outer loop
      vertex 13.9 90 2.2
      vertex 13.9 17.5 0
      vertex 13.9 30.5 0
    endloop
  endfacet
  facet normal 1 0 0
    outer loop
      vertex 13.9 90 2.2
      vertex 13.9 14.5 0
      vertex 13.9 17.5 0
    endloop
  endfacet
  facet normal 1 0 0
    outer loop
      vertex 13.9 14.5 0
      vertex 13.9 1.5 0
      vertex 13.9 14.5 -0.599999
    endloop
  endfacet
  facet normal 1 0 0
    outer loop
      vertex 13.9 90 2.2
      vertex 13.9 1.5 0
      vertex 13.9 14.5 0
    endloop
  endfacet
  facet normal 1 0 0
    outer loop
      vertex 13.9 90 2.2
      vertex 13.9 -1.5 0
      vertex 13.9 1.5 0
    endloop
  endfacet
  facet normal 1 0 0
    outer loop
      vertex 13.9 -1.5 0
      vertex 13.9 -14.5 0
      vertex 13.9 -1.5 -0.599999
    endloop
  endfacet
  facet normal 1 0 0
    outer loop
      vertex 13.9 90 2.2
      vertex 13.9 -14.5 0
      vertex 13.9 -1.5 0
    endloop
  endfacet
  facet normal 1 0 0
    outer loop
      vertex 13.9 90 2.2
      vertex 13.9 -17.5 0
      vertex 13.9 -14.5 0
    endloop
  endfacet
  facet normal 1 0 0
    outer loop
      vertex 13.9 -17.5 0
      vertex 13.9 -30.5 0
      vertex 13.9 -17.5 -0.599999
    endloop
  endfacet
  facet normal 1 -0 0
    outer loop
      vertex 13.9 -90 2.2
      vertex 13.9 -17.5 0
      vertex 13.9 90 2.2
    endloop
  endfacet
  facet normal 1 0 0
    outer loop
      vertex 13.9 -17.5 0
      vertex 13.9 -90 2.2
      vertex 13.9 -30.5 0
    endloop
  endfacet
  facet normal 1 0 0
    outer loop
      vertex 13.9 -33.5 0
      vertex 13.9 -46.5 0
      vertex 13.9 -33.5 -0.599999
    endloop
  endfacet
  facet normal 1 0 0
    outer loop
      vertex 13.9 -30.5 0
      vertex 13.9 -90 2.2
      vertex 13.9 -33.5 0
    endloop
  endfacet
  facet normal 1 0 0
    outer loop
      vertex 13.9 -33.5 0
      vertex 13.9 -90 2.2
      vertex 13.9 -46.5 0
    endloop
  endfacet
  facet normal 1 0 0
    outer loop
      vertex 13.9 -49.5 0
      vertex 13.9 -62.5 0
      vertex 13.9 -49.5 -0.599999
    endloop
  endfacet
  facet normal 1 0 0
    outer loop
      vertex 13.9 -46.5 0
      vertex 13.9 -90 2.2
      vertex 13.9 -49.5 0
    endloop
  endfacet
  facet normal 1 0 0
    outer loop
      vertex 13.9 -49.5 0
      vertex 13.9 -90 2.2
      vertex 13.9 -62.5 0
    endloop
  endfacet
  facet normal 1 0 0
    outer loop
      vertex 13.9 -65.5 0
      vertex 13.9 -78.5 0
      vertex 13.9 -65.5 -0.599999
    endloop
  endfacet
  facet normal 1 0 0
    outer loop
      vertex 13.9 -62.5 0
      vertex 13.9 -90 2.2
      vertex 13.9 -65.5 0
    endloop
  endfacet
  facet normal 1 0 0
    outer loop
      vertex 13.9 -65.5 0
      vertex 13.9 -90 2.2
      vertex 13.9 -78.5 0
    endloop
  endfacet
  facet normal 1 0 0
    outer loop
      vertex 13.9 -78.5 0
      vertex 13.9 -90 2.2
      vertex 13.9 -81.5 0
    endloop
  endfacet
  facet normal 1 0 0
    outer loop
      vertex 13.9 -90 -0.599999
      vertex 13.9 -81.5 0
      vertex 13.9 -90 2.2
    endloop
  endfacet
  facet normal 1 0 0
    outer loop
      vertex 13.9 -81.5 0
      vertex 13.9 -90 -0.599999
      vertex 13.9 -81.5 -0.599999
    endloop
  endfacet
  facet normal 1 0 0
    outer loop
      vertex 13.9 90 -0.599999
      vertex 13.9 81.5 0
      vertex 13.9 81.5 -0.599999
    endloop
  endfacet
  facet normal 1 0 0
    outer loop
      vertex 13.9 78.5 -0.599999
      vertex 13.9 65.5 0
      vertex 13.9 65.5 -0.599999
    endloop
  endfacet
  facet normal 1 0 0
    outer loop
      vertex 13.9 62.5 -0.599999
      vertex 13.9 49.5 0
      vertex 13.9 49.5 -0.599999
    endloop
  endfacet
  facet normal 1 0 0
    outer loop
      vertex 13.9 46.5 -0.599999
      vertex 13.9 33.5 0
      vertex 13.9 33.5 -0.599999
    endloop
  endfacet
  facet normal 1 0 0
    outer loop
      vertex 13.9 30.5 -0.599999
      vertex 13.9 17.5 0
      vertex 13.9 17.5 -0.599999
    endloop
  endfacet
  facet normal 1 0 0
    outer loop
      vertex 13.9 14.5 -0.599999
      vertex 13.9 1.5 0
      vertex 13.9 1.5 -0.599999
    endloop
  endfacet
  facet normal 1 0 0
    outer loop
      vertex 13.9 -1.5 -0.599999
      vertex 13.9 -14.5 0
      vertex 13.9 -14.5 -0.599999
    endloop
  endfacet
  facet normal 1 0 0
    outer loop
      vertex 13.9 -17.5 -0.599999
      vertex 13.9 -30.5 0
      vertex 13.9 -30.5 -0.599999
    endloop
  endfacet
  facet normal 1 0 0
    outer loop
      vertex 13.9 -33.5 -0.599999
      vertex 13.9 -46.5 0
      vertex 13.9 -46.5 -0.599999
    endloop
  endfacet
  facet normal 1 0 0
    outer loop
      vertex 13.9 -49.5 -0.599999
      vertex 13.9 -62.5 0
      vertex 13.9 -62.5 -0.599999
    endloop
  endfacet
  facet normal 1 0 0
    outer loop
      vertex 13.9 -65.5 -0.599999
      vertex 13.9 -78.5 0
      vertex 13.9 -78.5 -0.599999
    endloop
  endfacet
endsolid OpenSCAD_Model
