solid OpenSCAD_Model
  facet normal 1 -0 0
    outer loop
      vertex 1 1 2.4
      vertex 1 24 1.2
      vertex 1 24 2.4
    endloop
  endfacet
  facet normal 1 0 0
    outer loop
      vertex 1 24 1.2
      vertex 1 1 2.4
      vertex 1 1 1.2
    endloop
  endfacet
  facet normal -1 0 0
    outer loop
      vertex 24 1 1.2
      vertex 24 24 2.4
      vertex 24 24 1.2
    endloop
  endfacet
  facet normal -1 -0 0
    outer loop
      vertex 24 24 2.4
      vertex 24 1 1.2
      vertex 24 1 2.4
    endloop
  endfacet
  facet normal 0 -1 0
    outer loop
      vertex 1 24 1.2
      vertex 24 24 2.4
      vertex 1 24 2.4
    endloop
  endfacet
  facet normal 0 -1 -0
    outer loop
      vertex 24 24 2.4
      vertex 1 24 1.2
      vertex 24 24 1.2
    endloop
  endfacet
  facet normal -0 0 1
    outer loop
      vertex 1 24 1.2
      vertex 24 1 1.2
      vertex 24 24 1.2
    endloop
  endfacet
  facet normal 0 0 1
    outer loop
      vertex 24 1 1.2
      vertex 1 24 1.2
      vertex 1 1 1.2
    endloop
  endfacet
  facet normal 0 1 -0
    outer loop
      vertex 24 1 1.2
      vertex 1 1 2.4
      vertex 24 1 2.4
    endloop
  endfacet
  facet normal 0 1 0
    outer loop
      vertex 1 1 2.4
      vertex 24 1 1.2
      vertex 1 1 1.2
    endloop
  endfacet
  facet normal 1 -0 0
    outer loop
      vertex 25 1 2.4
      vertex 25 24 1.2
      vertex 25 24 2.4
    endloop
  endfacet
  facet normal 1 0 0
    outer loop
      vertex 25 24 1.2
      vertex 25 1 2.4
      vertex 25 1 1.2
    endloop
  endfacet
  facet normal -1 0 0
    outer loop
      vertex 48 1 1.2
      vertex 48 24 2.4
      vertex 48 24 1.2
    endloop
  endfacet
  facet normal -1 -0 0
    outer loop
      vertex 48 24 2.4
      vertex 48 1 1.2
      vertex 48 1 2.4
    endloop
  endfacet
  facet normal -0 0 1
    outer loop
      vertex 25 24 1.2
      vertex 48 1 1.2
      vertex 48 24 1.2
    endloop
  endfacet
  facet normal 0 0 1
    outer loop
      vertex 48 1 1.2
      vertex 25 24 1.2
      vertex 25 1 1.2
    endloop
  endfacet
  facet normal 0 1 -0
    outer loop
      vertex 48 1 1.2
      vertex 25 1 2.4
      vertex 48 1 2.4
    endloop
  endfacet
  facet normal 0 1 0
    outer loop
      vertex 25 1 2.4
      vertex 48 1 1.2
      vertex 25 1 1.2
    endloop
  endfacet
  facet normal 0 -1 0
    outer loop
      vertex 25 24 1.2
      vertex 48 24 2.4
      vertex 25 24 2.4
    endloop
  endfacet
  facet normal 0 -1 -0
    outer loop
      vertex 48 24 2.4
      vertex 25 24 1.2
      vertex 48 24 1.2
    endloop
  endfacet
  facet normal 1 -0 0
    outer loop
      vertex 49 1 2.4
      vertex 49 24 1.2
      vertex 49 24 2.4
    endloop
  endfacet
  facet normal 1 0 0
    outer loop
      vertex 49 24 1.2
      vertex 49 1 2.4
      vertex 49 1 1.2
    endloop
  endfacet
  facet normal -1 0 0
    outer loop
      vertex 72 1 1.2
      vertex 72 24 2.4
      vertex 72 24 1.2
    endloop
  endfacet
  facet normal -1 -0 0
    outer loop
      vertex 72 24 2.4
      vertex 72 1 1.2
      vertex 72 1 2.4
    endloop
  endfacet
  facet normal -0 0 1
    outer loop
      vertex 49 24 1.2
      vertex 72 1 1.2
      vertex 72 24 1.2
    endloop
  endfacet
  facet normal 0 0 1
    outer loop
      vertex 72 1 1.2
      vertex 49 24 1.2
      vertex 49 1 1.2
    endloop
  endfacet
  facet normal 0 1 -0
    outer loop
      vertex 72 1 1.2
      vertex 49 1 2.4
      vertex 72 1 2.4
    endloop
  endfacet
  facet normal 0 1 0
    outer loop
      vertex 49 1 2.4
      vertex 72 1 1.2
      vertex 49 1 1.2
    endloop
  endfacet
  facet normal 0 -1 0
    outer loop
      vertex 49 24 1.2
      vertex 72 24 2.4
      vertex 49 24 2.4
    endloop
  endfacet
  facet normal 0 -1 -0
    outer loop
      vertex 72 24 2.4
      vertex 49 24 1.2
      vertex 72 24 1.2
    endloop
  endfacet
  facet normal 1 -0 0
    outer loop
      vertex 73 1 2.4
      vertex 73 24 1.2
      vertex 73 24 2.4
    endloop
  endfacet
  facet normal 1 0 0
    outer loop
      vertex 73 24 1.2
      vertex 73 1 2.4
      vertex 73 1 1.2
    endloop
  endfacet
  facet normal -1 0 0
    outer loop
      vertex 96 1 1.2
      vertex 96 24 2.4
      vertex 96 24 1.2
    endloop
  endfacet
  facet normal -1 -0 0
    outer loop
      vertex 96 24 2.4
      vertex 96 1 1.2
      vertex 96 1 2.4
    endloop
  endfacet
  facet normal 0 -1 0
    outer loop
      vertex 73 24 1.2
      vertex 96 24 2.4
      vertex 73 24 2.4
    endloop
  endfacet
  facet normal 0 -1 -0
    outer loop
      vertex 96 24 2.4
      vertex 73 24 1.2
      vertex 96 24 1.2
    endloop
  endfacet
  facet normal -0 0 1
    outer loop
      vertex 73 24 1.2
      vertex 96 1 1.2
      vertex 96 24 1.2
    endloop
  endfacet
  facet normal 0 0 1
    outer loop
      vertex 96 1 1.2
      vertex 73 24 1.2
      vertex 73 1 1.2
    endloop
  endfacet
  facet normal 0 1 -0
    outer loop
      vertex 96 1 1.2
      vertex 73 1 2.4
      vertex 96 1 2.4
    endloop
  endfacet
  facet normal 0 1 0
    outer loop
      vertex 73 1 2.4
      vertex 96 1 1.2
      vertex 73 1 1.2
    endloop
  endfacet
  facet normal 1 -0 0
    outer loop
      vertex 97 1 2.4
      vertex 97 24 1.2
      vertex 97 24 2.4
    endloop
  endfacet
  facet normal 1 0 0
    outer loop
      vertex 97 24 1.2
      vertex 97 1 2.4
      vertex 97 1 1.2
    endloop
  endfacet
  facet normal -1 0 0
    outer loop
      vertex 120 1 1.2
      vertex 120 24 2.4
      vertex 120 24 1.2
    endloop
  endfacet
  facet normal -1 -0 0
    outer loop
      vertex 120 24 2.4
      vertex 120 1 1.2
      vertex 120 1 2.4
    endloop
  endfacet
  facet normal -0 0 1
    outer loop
      vertex 97 24 1.2
      vertex 120 1 1.2
      vertex 120 24 1.2
    endloop
  endfacet
  facet normal 0 0 1
    outer loop
      vertex 120 1 1.2
      vertex 97 24 1.2
      vertex 97 1 1.2
    endloop
  endfacet
  facet normal 0 1 -0
    outer loop
      vertex 120 1 1.2
      vertex 97 1 2.4
      vertex 120 1 2.4
    endloop
  endfacet
  facet normal 0 1 0
    outer loop
      vertex 97 1 2.4
      vertex 120 1 1.2
      vertex 97 1 1.2
    endloop
  endfacet
  facet normal 0 -1 0
    outer loop
      vertex 97 24 1.2
      vertex 120 24 2.4
      vertex 97 24 2.4
    endloop
  endfacet
  facet normal 0 -1 -0
    outer loop
      vertex 120 24 2.4
      vertex 97 24 1.2
      vertex 120 24 1.2
    endloop
  endfacet
  facet normal 1 -0 0
    outer loop
      vertex 121 1 2.4
      vertex 121 24 1.2
      vertex 121 24 2.4
    endloop
  endfacet
  facet normal 1 0 0
    outer loop
      vertex 121 24 1.2
      vertex 121 1 2.4
      vertex 121 1 1.2
    endloop
  endfacet
  facet normal -1 0 0
    outer loop
      vertex 144 1 1.2
      vertex 144 24 2.4
      vertex 144 24 1.2
    endloop
  endfacet
  facet normal -1 -0 0
    outer loop
      vertex 144 24 2.4
      vertex 144 1 1.2
      vertex 144 1 2.4
    endloop
  endfacet
  facet normal -0 0 1
    outer loop
      vertex 121 24 1.2
      vertex 144 1 1.2
      vertex 144 24 1.2
    endloop
  endfacet
  facet normal 0 0 1
    outer loop
      vertex 144 1 1.2
      vertex 121 24 1.2
      vertex 121 1 1.2
    endloop
  endfacet
  facet normal 0 1 -0
    outer loop
      vertex 144 1 1.2
      vertex 121 1 2.4
      vertex 144 1 2.4
    endloop
  endfacet
  facet normal 0 1 0
    outer loop
      vertex 121 1 2.4
      vertex 144 1 1.2
      vertex 121 1 1.2
    endloop
  endfacet
  facet normal 0 -1 0
    outer loop
      vertex 121 24 1.2
      vertex 144 24 2.4
      vertex 121 24 2.4
    endloop
  endfacet
  facet normal 0 -1 -0
    outer loop
      vertex 144 24 2.4
      vertex 121 24 1.2
      vertex 144 24 1.2
    endloop
  endfacet
  facet normal 1 -0 0
    outer loop
      vertex 145 1 2.4
      vertex 145 24 1.2
      vertex 145 24 2.4
    endloop
  endfacet
  facet normal 1 0 0
    outer loop
      vertex 145 24 1.2
      vertex 145 1 2.4
      vertex 145 1 1.2
    endloop
  endfacet
  facet normal -1 0 0
    outer loop
      vertex 168 1 1.2
      vertex 168 24 2.4
      vertex 168 24 1.2
    endloop
  endfacet
  facet normal -1 -0 0
    outer loop
      vertex 168 24 2.4
      vertex 168 1 1.2
      vertex 168 1 2.4
    endloop
  endfacet
  facet normal -0 0 1
    outer loop
      vertex 145 24 1.2
      vertex 168 1 1.2
      vertex 168 24 1.2
    endloop
  endfacet
  facet normal 0 0 1
    outer loop
      vertex 168 1 1.2
      vertex 145 24 1.2
      vertex 145 1 1.2
    endloop
  endfacet
  facet normal 0 1 -0
    outer loop
      vertex 168 1 1.2
      vertex 145 1 2.4
      vertex 168 1 2.4
    endloop
  endfacet
  facet normal 0 1 0
    outer loop
      vertex 145 1 2.4
      vertex 168 1 1.2
      vertex 145 1 1.2
    endloop
  endfacet
  facet normal 0 -1 0
    outer loop
      vertex 145 24 1.2
      vertex 168 24 2.4
      vertex 145 24 2.4
    endloop
  endfacet
  facet normal 0 -1 -0
    outer loop
      vertex 168 24 2.4
      vertex 145 24 1.2
      vertex 168 24 1.2
    endloop
  endfacet
  facet normal 1 -0 0
    outer loop
      vertex 1 25 2.4
      vertex 1 48 1.2
      vertex 1 48 2.4
    endloop
  endfacet
  facet normal 1 0 0
    outer loop
      vertex 1 48 1.2
      vertex 1 25 2.4
      vertex 1 25 1.2
    endloop
  endfacet
  facet normal -1 0 0
    outer loop
      vertex 24 25 1.2
      vertex 24 48 2.4
      vertex 24 48 1.2
    endloop
  endfacet
  facet normal -1 -0 0
    outer loop
      vertex 24 48 2.4
      vertex 24 25 1.2
      vertex 24 25 2.4
    endloop
  endfacet
  facet normal -0 0 1
    outer loop
      vertex 1 48 1.2
      vertex 24 25 1.2
      vertex 24 48 1.2
    endloop
  endfacet
  facet normal 0 0 1
    outer loop
      vertex 24 25 1.2
      vertex 1 48 1.2
      vertex 1 25 1.2
    endloop
  endfacet
  facet normal 0 1 -0
    outer loop
      vertex 24 25 1.2
      vertex 1 25 2.4
      vertex 24 25 2.4
    endloop
  endfacet
  facet normal 0 1 0
    outer loop
      vertex 1 25 2.4
      vertex 24 25 1.2
      vertex 1 25 1.2
    endloop
  endfacet
  facet normal 0 -1 0
    outer loop
      vertex 1 48 1.2
      vertex 24 48 2.4
      vertex 1 48 2.4
    endloop
  endfacet
  facet normal 0 -1 -0
    outer loop
      vertex 24 48 2.4
      vertex 1 48 1.2
      vertex 24 48 1.2
    endloop
  endfacet
  facet normal 1 -0 0
    outer loop
      vertex 25 25 2.4
      vertex 25 48 1.2
      vertex 25 48 2.4
    endloop
  endfacet
  facet normal 1 0 0
    outer loop
      vertex 25 48 1.2
      vertex 25 25 2.4
      vertex 25 25 1.2
    endloop
  endfacet
  facet normal -1 0 0
    outer loop
      vertex 48 25 1.2
      vertex 48 48 2.4
      vertex 48 48 1.2
    endloop
  endfacet
  facet normal -1 -0 0
    outer loop
      vertex 48 48 2.4
      vertex 48 25 1.2
      vertex 48 25 2.4
    endloop
  endfacet
  facet normal 0 -1 0
    outer loop
      vertex 25 48 1.2
      vertex 48 48 2.4
      vertex 25 48 2.4
    endloop
  endfacet
  facet normal 0 -1 -0
    outer loop
      vertex 48 48 2.4
      vertex 25 48 1.2
      vertex 48 48 1.2
    endloop
  endfacet
  facet normal -0 0 1
    outer loop
      vertex 25 48 1.2
      vertex 48 25 1.2
      vertex 48 48 1.2
    endloop
  endfacet
  facet normal 0 0 1
    outer loop
      vertex 48 25 1.2
      vertex 25 48 1.2
      vertex 25 25 1.2
    endloop
  endfacet
  facet normal 0 1 -0
    outer loop
      vertex 48 25 1.2
      vertex 25 25 2.4
      vertex 48 25 2.4
    endloop
  endfacet
  facet normal 0 1 0
    outer loop
      vertex 25 25 2.4
      vertex 48 25 1.2
      vertex 25 25 1.2
    endloop
  endfacet
  facet normal 1 -0 0
    outer loop
      vertex 49 25 2.4
      vertex 49 48 1.2
      vertex 49 48 2.4
    endloop
  endfacet
  facet normal 1 0 0
    outer loop
      vertex 49 48 1.2
      vertex 49 25 2.4
      vertex 49 25 1.2
    endloop
  endfacet
  facet normal -1 0 0
    outer loop
      vertex 72 25 1.2
      vertex 72 48 2.4
      vertex 72 48 1.2
    endloop
  endfacet
  facet normal -1 -0 0
    outer loop
      vertex 72 48 2.4
      vertex 72 25 1.2
      vertex 72 25 2.4
    endloop
  endfacet
  facet normal 0 -1 0
    outer loop
      vertex 49 48 1.2
      vertex 72 48 2.4
      vertex 49 48 2.4
    endloop
  endfacet
  facet normal 0 -1 -0
    outer loop
      vertex 72 48 2.4
      vertex 49 48 1.2
      vertex 72 48 1.2
    endloop
  endfacet
  facet normal -0 0 1
    outer loop
      vertex 49 48 1.2
      vertex 72 25 1.2
      vertex 72 48 1.2
    endloop
  endfacet
  facet normal 0 0 1
    outer loop
      vertex 72 25 1.2
      vertex 49 48 1.2
      vertex 49 25 1.2
    endloop
  endfacet
  facet normal 0 1 -0
    outer loop
      vertex 72 25 1.2
      vertex 49 25 2.4
      vertex 72 25 2.4
    endloop
  endfacet
  facet normal 0 1 0
    outer loop
      vertex 49 25 2.4
      vertex 72 25 1.2
      vertex 49 25 1.2
    endloop
  endfacet
  facet normal 1 -0 0
    outer loop
      vertex 73 25 2.4
      vertex 73 48 1.2
      vertex 73 48 2.4
    endloop
  endfacet
  facet normal 1 0 0
    outer loop
      vertex 73 48 1.2
      vertex 73 25 2.4
      vertex 73 25 1.2
    endloop
  endfacet
  facet normal -1 0 0
    outer loop
      vertex 96 25 1.2
      vertex 96 48 2.4
      vertex 96 48 1.2
    endloop
  endfacet
  facet normal -1 -0 0
    outer loop
      vertex 96 48 2.4
      vertex 96 25 1.2
      vertex 96 25 2.4
    endloop
  endfacet
  facet normal 0 -1 0
    outer loop
      vertex 73 48 1.2
      vertex 96 48 2.4
      vertex 73 48 2.4
    endloop
  endfacet
  facet normal 0 -1 -0
    outer loop
      vertex 96 48 2.4
      vertex 73 48 1.2
      vertex 96 48 1.2
    endloop
  endfacet
  facet normal -0 0 1
    outer loop
      vertex 73 48 1.2
      vertex 96 25 1.2
      vertex 96 48 1.2
    endloop
  endfacet
  facet normal 0 0 1
    outer loop
      vertex 96 25 1.2
      vertex 73 48 1.2
      vertex 73 25 1.2
    endloop
  endfacet
  facet normal 0 1 -0
    outer loop
      vertex 96 25 1.2
      vertex 73 25 2.4
      vertex 96 25 2.4
    endloop
  endfacet
  facet normal 0 1 0
    outer loop
      vertex 73 25 2.4
      vertex 96 25 1.2
      vertex 73 25 1.2
    endloop
  endfacet
  facet normal 1 -0 0
    outer loop
      vertex 97 25 2.4
      vertex 97 48 1.2
      vertex 97 48 2.4
    endloop
  endfacet
  facet normal 1 0 0
    outer loop
      vertex 97 48 1.2
      vertex 97 25 2.4
      vertex 97 25 1.2
    endloop
  endfacet
  facet normal -1 0 0
    outer loop
      vertex 120 25 1.2
      vertex 120 48 2.4
      vertex 120 48 1.2
    endloop
  endfacet
  facet normal -1 -0 0
    outer loop
      vertex 120 48 2.4
      vertex 120 25 1.2
      vertex 120 25 2.4
    endloop
  endfacet
  facet normal -0 0 1
    outer loop
      vertex 97 48 1.2
      vertex 120 25 1.2
      vertex 120 48 1.2
    endloop
  endfacet
  facet normal 0 0 1
    outer loop
      vertex 120 25 1.2
      vertex 97 48 1.2
      vertex 97 25 1.2
    endloop
  endfacet
  facet normal 0 1 -0
    outer loop
      vertex 120 25 1.2
      vertex 97 25 2.4
      vertex 120 25 2.4
    endloop
  endfacet
  facet normal 0 1 0
    outer loop
      vertex 97 25 2.4
      vertex 120 25 1.2
      vertex 97 25 1.2
    endloop
  endfacet
  facet normal 0 -1 0
    outer loop
      vertex 97 48 1.2
      vertex 120 48 2.4
      vertex 97 48 2.4
    endloop
  endfacet
  facet normal 0 -1 -0
    outer loop
      vertex 120 48 2.4
      vertex 97 48 1.2
      vertex 120 48 1.2
    endloop
  endfacet
  facet normal 1 -0 0
    outer loop
      vertex 121 25 2.4
      vertex 121 48 1.2
      vertex 121 48 2.4
    endloop
  endfacet
  facet normal 1 0 0
    outer loop
      vertex 121 48 1.2
      vertex 121 25 2.4
      vertex 121 25 1.2
    endloop
  endfacet
  facet normal -1 0 0
    outer loop
      vertex 144 25 1.2
      vertex 144 48 2.4
      vertex 144 48 1.2
    endloop
  endfacet
  facet normal -1 -0 0
    outer loop
      vertex 144 48 2.4
      vertex 144 25 1.2
      vertex 144 25 2.4
    endloop
  endfacet
  facet normal -0 0 1
    outer loop
      vertex 121 48 1.2
      vertex 144 25 1.2
      vertex 144 48 1.2
    endloop
  endfacet
  facet normal 0 0 1
    outer loop
      vertex 144 25 1.2
      vertex 121 48 1.2
      vertex 121 25 1.2
    endloop
  endfacet
  facet normal 0 1 -0
    outer loop
      vertex 144 25 1.2
      vertex 121 25 2.4
      vertex 144 25 2.4
    endloop
  endfacet
  facet normal 0 1 0
    outer loop
      vertex 121 25 2.4
      vertex 144 25 1.2
      vertex 121 25 1.2
    endloop
  endfacet
  facet normal 0 -1 0
    outer loop
      vertex 121 48 1.2
      vertex 144 48 2.4
      vertex 121 48 2.4
    endloop
  endfacet
  facet normal 0 -1 -0
    outer loop
      vertex 144 48 2.4
      vertex 121 48 1.2
      vertex 144 48 1.2
    endloop
  endfacet
  facet normal 1 -0 0
    outer loop
      vertex 145 25 2.4
      vertex 145 48 1.2
      vertex 145 48 2.4
    endloop
  endfacet
  facet normal 1 0 0
    outer loop
      vertex 145 48 1.2
      vertex 145 25 2.4
      vertex 145 25 1.2
    endloop
  endfacet
  facet normal -1 0 0
    outer loop
      vertex 168 25 1.2
      vertex 168 48 2.4
      vertex 168 48 1.2
    endloop
  endfacet
  facet normal -1 -0 0
    outer loop
      vertex 168 48 2.4
      vertex 168 25 1.2
      vertex 168 25 2.4
    endloop
  endfacet
  facet normal -0 0 1
    outer loop
      vertex 145 48 1.2
      vertex 168 25 1.2
      vertex 168 48 1.2
    endloop
  endfacet
  facet normal 0 0 1
    outer loop
      vertex 168 25 1.2
      vertex 145 48 1.2
      vertex 145 25 1.2
    endloop
  endfacet
  facet normal 0 1 -0
    outer loop
      vertex 168 25 1.2
      vertex 145 25 2.4
      vertex 168 25 2.4
    endloop
  endfacet
  facet normal 0 1 0
    outer loop
      vertex 145 25 2.4
      vertex 168 25 1.2
      vertex 145 25 1.2
    endloop
  endfacet
  facet normal 0 -1 0
    outer loop
      vertex 145 48 1.2
      vertex 168 48 2.4
      vertex 145 48 2.4
    endloop
  endfacet
  facet normal 0 -1 -0
    outer loop
      vertex 168 48 2.4
      vertex 145 48 1.2
      vertex 168 48 1.2
    endloop
  endfacet
  facet normal 1 -0 0
    outer loop
      vertex 8.45 0 0.599999
      vertex 8.45 49 0
      vertex 8.45 49 0.599999
    endloop
  endfacet
  facet normal 1 0 0
    outer loop
      vertex 8.45 49 0
      vertex 8.45 0 0.599999
      vertex 8.45 0 0
    endloop
  endfacet
  facet normal 0 0 -1
    outer loop
      vertex 8.45 0 0.599999
      vertex 11.45 49 0.599999
      vertex 11.45 0 0.599999
    endloop
  endfacet
  facet normal -0 0 -1
    outer loop
      vertex 11.45 49 0.599999
      vertex 8.45 0 0.599999
      vertex 8.45 49 0.599999
    endloop
  endfacet
  facet normal -1 0 0
    outer loop
      vertex 11.45 0 0
      vertex 11.45 49 0.599999
      vertex 11.45 49 0
    endloop
  endfacet
  facet normal -1 -0 0
    outer loop
      vertex 11.45 49 0.599999
      vertex 11.45 0 0
      vertex 11.45 0 0.599999
    endloop
  endfacet
  facet normal 1 -0 0
    outer loop
      vertex 42.25 0 0.599999
      vertex 42.25 49 0
      vertex 42.25 49 0.599999
    endloop
  endfacet
  facet normal 1 0 0
    outer loop
      vertex 42.25 49 0
      vertex 42.25 0 0.599999
      vertex 42.25 0 0
    endloop
  endfacet
  facet normal 0 0 -1
    outer loop
      vertex 42.25 0 0.599999
      vertex 45.25 49 0.599999
      vertex 45.25 0 0.599999
    endloop
  endfacet
  facet normal -0 0 -1
    outer loop
      vertex 45.25 49 0.599999
      vertex 42.25 0 0.599999
      vertex 42.25 49 0.599999
    endloop
  endfacet
  facet normal -1 0 0
    outer loop
      vertex 45.25 0 0
      vertex 45.25 49 0.599999
      vertex 45.25 49 0
    endloop
  endfacet
  facet normal -1 -0 0
    outer loop
      vertex 45.25 49 0.599999
      vertex 45.25 0 0
      vertex 45.25 0 0.599999
    endloop
  endfacet
  facet normal 1 -0 0
    outer loop
      vertex 76.05 0 0.599999
      vertex 76.05 49 0
      vertex 76.05 49 0.599999
    endloop
  endfacet
  facet normal 1 0 0
    outer loop
      vertex 76.05 49 0
      vertex 76.05 0 0.599999
      vertex 76.05 0 0
    endloop
  endfacet
  facet normal 0 0 -1
    outer loop
      vertex 76.05 0 0.599999
      vertex 79.05 49 0.599999
      vertex 79.05 0 0.599999
    endloop
  endfacet
  facet normal -0 0 -1
    outer loop
      vertex 79.05 49 0.599999
      vertex 76.05 0 0.599999
      vertex 76.05 49 0.599999
    endloop
  endfacet
  facet normal -1 0 0
    outer loop
      vertex 79.05 0 0
      vertex 79.05 49 0.599999
      vertex 79.05 49 0
    endloop
  endfacet
  facet normal -1 -0 0
    outer loop
      vertex 79.05 49 0.599999
      vertex 79.05 0 0
      vertex 79.05 0 0.599999
    endloop
  endfacet
  facet normal 1 -0 0
    outer loop
      vertex 109.85 0 0.599999
      vertex 109.85 49 0
      vertex 109.85 49 0.599999
    endloop
  endfacet
  facet normal 1 0 0
    outer loop
      vertex 109.85 49 0
      vertex 109.85 0 0.599999
      vertex 109.85 0 0
    endloop
  endfacet
  facet normal 0 0 -1
    outer loop
      vertex 109.85 0 0.599999
      vertex 112.85 49 0.599999
      vertex 112.85 0 0.599999
    endloop
  endfacet
  facet normal -0 0 -1
    outer loop
      vertex 112.85 49 0.599999
      vertex 109.85 0 0.599999
      vertex 109.85 49 0.599999
    endloop
  endfacet
  facet normal -1 0 0
    outer loop
      vertex 112.85 0 0
      vertex 112.85 49 0.599999
      vertex 112.85 49 0
    endloop
  endfacet
  facet normal -1 -0 0
    outer loop
      vertex 112.85 49 0.599999
      vertex 112.85 0 0
      vertex 112.85 0 0.599999
    endloop
  endfacet
  facet normal 1 -0 0
    outer loop
      vertex 143.65 0 0.599999
      vertex 143.65 49 0
      vertex 143.65 49 0.599999
    endloop
  endfacet
  facet normal 1 0 0
    outer loop
      vertex 143.65 49 0
      vertex 143.65 0 0.599999
      vertex 143.65 0 0
    endloop
  endfacet
  facet normal 0 0 -1
    outer loop
      vertex 143.65 0 0.599999
      vertex 146.65 49 0.599999
      vertex 146.65 0 0.599999
    endloop
  endfacet
  facet normal -0 0 -1
    outer loop
      vertex 146.65 49 0.599999
      vertex 143.65 0 0.599999
      vertex 143.65 49 0.599999
    endloop
  endfacet
  facet normal -1 0 0
    outer loop
      vertex 146.65 0 0
      vertex 146.65 49 0.599999
      vertex 146.65 49 0
    endloop
  endfacet
  facet normal -1 -0 0
    outer loop
      vertex 146.65 49 0.599999
      vertex 146.65 0 0
      vertex 146.65 0 0.599999
    endloop
  endfacet
  facet normal -1 0 0
    outer loop
      vertex 0 0 0
      vertex 0 49 2.4
      vertex 0 49 0
    endloop
  endfacet
  facet normal -1 -0 0
    outer loop
      vertex 0 49 2.4
      vertex 0 0 0
      vertex 0 0 2.4
    endloop
  endfacet
  facet normal -0 0 1
    outer loop
      vertex 1 25 2.4
      vertex 24 24 2.4
      vertex 24 25 2.4
    endloop
  endfacet
  facet normal 0 0 1
    outer loop
      vertex 24 24 2.4
      vertex 1 25 2.4
      vertex 1 24 2.4
    endloop
  endfacet
  facet normal -0 0 1
    outer loop
      vertex 25 25 2.4
      vertex 48 24 2.4
      vertex 48 25 2.4
    endloop
  endfacet
  facet normal 0 0 1
    outer loop
      vertex 48 24 2.4
      vertex 25 25 2.4
      vertex 25 24 2.4
    endloop
  endfacet
  facet normal -0 0 1
    outer loop
      vertex 49 25 2.4
      vertex 72 24 2.4
      vertex 72 25 2.4
    endloop
  endfacet
  facet normal 0 0 1
    outer loop
      vertex 72 24 2.4
      vertex 49 25 2.4
      vertex 49 24 2.4
    endloop
  endfacet
  facet normal -0 0 1
    outer loop
      vertex 73 25 2.4
      vertex 96 24 2.4
      vertex 96 25 2.4
    endloop
  endfacet
  facet normal 0 0 1
    outer loop
      vertex 96 24 2.4
      vertex 73 25 2.4
      vertex 73 24 2.4
    endloop
  endfacet
  facet normal -0 0 1
    outer loop
      vertex 97 25 2.4
      vertex 120 24 2.4
      vertex 120 25 2.4
    endloop
  endfacet
  facet normal 0 0 1
    outer loop
      vertex 120 24 2.4
      vertex 97 25 2.4
      vertex 97 24 2.4
    endloop
  endfacet
  facet normal -0 0 1
    outer loop
      vertex 121 25 2.4
      vertex 144 24 2.4
      vertex 144 25 2.4
    endloop
  endfacet
  facet normal 0 0 1
    outer loop
      vertex 144 24 2.4
      vertex 121 25 2.4
      vertex 121 24 2.4
    endloop
  endfacet
  facet normal -0 0 1
    outer loop
      vertex 145 25 2.4
      vertex 168 24 2.4
      vertex 168 25 2.4
    endloop
  endfacet
  facet normal 0 0 1
    outer loop
      vertex 168 24 2.4
      vertex 145 25 2.4
      vertex 145 24 2.4
    endloop
  endfacet
  facet normal 0 0 1
    outer loop
      vertex 168 25 2.4
      vertex 169 49 2.4
      vertex 168 48 2.4
    endloop
  endfacet
  facet normal 0 0 1
    outer loop
      vertex 169 49 2.4
      vertex 145 48 2.4
      vertex 168 48 2.4
    endloop
  endfacet
  facet normal 0 0 1
    outer loop
      vertex 144 25 2.4
      vertex 145 25 2.4
      vertex 145 48 2.4
    endloop
  endfacet
  facet normal 0 0 1
    outer loop
      vertex 145 25 2.4
      vertex 144 25 2.4
      vertex 145 24 2.4
    endloop
  endfacet
  facet normal 0 0 1
    outer loop
      vertex 144 25 2.4
      vertex 145 48 2.4
      vertex 144 48 2.4
    endloop
  endfacet
  facet normal 0 0 1
    outer loop
      vertex 169 49 2.4
      vertex 144 48 2.4
      vertex 145 48 2.4
    endloop
  endfacet
  facet normal 0 0 1
    outer loop
      vertex 169 49 2.4
      vertex 121 48 2.4
      vertex 144 48 2.4
    endloop
  endfacet
  facet normal 0 0 1
    outer loop
      vertex 120 25 2.4
      vertex 121 25 2.4
      vertex 121 48 2.4
    endloop
  endfacet
  facet normal 0 0 1
    outer loop
      vertex 121 25 2.4
      vertex 120 25 2.4
      vertex 121 24 2.4
    endloop
  endfacet
  facet normal 0 0 1
    outer loop
      vertex 120 25 2.4
      vertex 121 48 2.4
      vertex 120 48 2.4
    endloop
  endfacet
  facet normal 0 0 1
    outer loop
      vertex 169 49 2.4
      vertex 120 48 2.4
      vertex 121 48 2.4
    endloop
  endfacet
  facet normal 0 0 1
    outer loop
      vertex 169 49 2.4
      vertex 97 48 2.4
      vertex 120 48 2.4
    endloop
  endfacet
  facet normal 0 0 1
    outer loop
      vertex 96 25 2.4
      vertex 97 25 2.4
      vertex 97 48 2.4
    endloop
  endfacet
  facet normal 0 0 1
    outer loop
      vertex 97 25 2.4
      vertex 96 25 2.4
      vertex 97 24 2.4
    endloop
  endfacet
  facet normal 0 0 1
    outer loop
      vertex 96 25 2.4
      vertex 97 48 2.4
      vertex 96 48 2.4
    endloop
  endfacet
  facet normal 0 0 1
    outer loop
      vertex 169 49 2.4
      vertex 96 48 2.4
      vertex 97 48 2.4
    endloop
  endfacet
  facet normal 0 0 1
    outer loop
      vertex 169 49 2.4
      vertex 73 48 2.4
      vertex 96 48 2.4
    endloop
  endfacet
  facet normal 0 0 1
    outer loop
      vertex 72 25 2.4
      vertex 73 25 2.4
      vertex 73 48 2.4
    endloop
  endfacet
  facet normal 0 0 1
    outer loop
      vertex 73 25 2.4
      vertex 72 25 2.4
      vertex 73 24 2.4
    endloop
  endfacet
  facet normal 0 0 1
    outer loop
      vertex 72 25 2.4
      vertex 73 48 2.4
      vertex 72 48 2.4
    endloop
  endfacet
  facet normal 0 0 1
    outer loop
      vertex 169 49 2.4
      vertex 72 48 2.4
      vertex 73 48 2.4
    endloop
  endfacet
  facet normal -0 0 1
    outer loop
      vertex 0 49 2.4
      vertex 72 48 2.4
      vertex 169 49 2.4
    endloop
  endfacet
  facet normal 0 0 1
    outer loop
      vertex 48 25 2.4
      vertex 49 25 2.4
      vertex 49 48 2.4
    endloop
  endfacet
  facet normal 0 0 1
    outer loop
      vertex 49 25 2.4
      vertex 48 25 2.4
      vertex 49 24 2.4
    endloop
  endfacet
  facet normal 0 0 1
    outer loop
      vertex 48 25 2.4
      vertex 49 48 2.4
      vertex 48 48 2.4
    endloop
  endfacet
  facet normal 0 0 1
    outer loop
      vertex 72 48 2.4
      vertex 0 49 2.4
      vertex 49 48 2.4
    endloop
  endfacet
  facet normal 0 0 1
    outer loop
      vertex 49 48 2.4
      vertex 0 49 2.4
      vertex 48 48 2.4
    endloop
  endfacet
  facet normal 0 0 1
    outer loop
      vertex 24 25 2.4
      vertex 25 25 2.4
      vertex 25 48 2.4
    endloop
  endfacet
  facet normal 0 0 1
    outer loop
      vertex 25 25 2.4
      vertex 24 25 2.4
      vertex 25 24 2.4
    endloop
  endfacet
  facet normal 0 0 1
    outer loop
      vertex 24 25 2.4
      vertex 25 48 2.4
      vertex 24 48 2.4
    endloop
  endfacet
  facet normal 0 0 1
    outer loop
      vertex 48 48 2.4
      vertex 0 49 2.4
      vertex 25 48 2.4
    endloop
  endfacet
  facet normal 0 0 1
    outer loop
      vertex 25 48 2.4
      vertex 0 49 2.4
      vertex 24 48 2.4
    endloop
  endfacet
  facet normal 0 0 1
    outer loop
      vertex 0 49 2.4
      vertex 1 25 2.4
      vertex 1 48 2.4
    endloop
  endfacet
  facet normal 0 0 1
    outer loop
      vertex 1 25 2.4
      vertex 0 49 2.4
      vertex 1 24 2.4
    endloop
  endfacet
  facet normal 0 0 1
    outer loop
      vertex 0 0 2.4
      vertex 1 24 2.4
      vertex 0 49 2.4
    endloop
  endfacet
  facet normal 0 0 1
    outer loop
      vertex 24 48 2.4
      vertex 0 49 2.4
      vertex 1 48 2.4
    endloop
  endfacet
  facet normal 0 0 1
    outer loop
      vertex 169 49 2.4
      vertex 168 25 2.4
      vertex 169 0 2.4
    endloop
  endfacet
  facet normal -0 0 1
    outer loop
      vertex 168 24 2.4
      vertex 169 0 2.4
      vertex 168 25 2.4
    endloop
  endfacet
  facet normal -0 0 1
    outer loop
      vertex 168 1 2.4
      vertex 169 0 2.4
      vertex 168 24 2.4
    endloop
  endfacet
  facet normal -0 0 1
    outer loop
      vertex 145 1 2.4
      vertex 169 0 2.4
      vertex 168 1 2.4
    endloop
  endfacet
  facet normal 0 0 1
    outer loop
      vertex 144 24 2.4
      vertex 145 24 2.4
      vertex 144 25 2.4
    endloop
  endfacet
  facet normal 0 0 1
    outer loop
      vertex 145 24 2.4
      vertex 144 24 2.4
      vertex 145 1 2.4
    endloop
  endfacet
  facet normal 0 0 1
    outer loop
      vertex 144 1 2.4
      vertex 145 1 2.4
      vertex 144 24 2.4
    endloop
  endfacet
  facet normal -0 0 1
    outer loop
      vertex 144 1 2.4
      vertex 169 0 2.4
      vertex 145 1 2.4
    endloop
  endfacet
  facet normal -0 0 1
    outer loop
      vertex 121 1 2.4
      vertex 169 0 2.4
      vertex 144 1 2.4
    endloop
  endfacet
  facet normal 0 0 1
    outer loop
      vertex 120 24 2.4
      vertex 121 24 2.4
      vertex 120 25 2.4
    endloop
  endfacet
  facet normal 0 0 1
    outer loop
      vertex 121 24 2.4
      vertex 120 24 2.4
      vertex 121 1 2.4
    endloop
  endfacet
  facet normal 0 0 1
    outer loop
      vertex 120 1 2.4
      vertex 121 1 2.4
      vertex 120 24 2.4
    endloop
  endfacet
  facet normal -0 0 1
    outer loop
      vertex 120 1 2.4
      vertex 169 0 2.4
      vertex 121 1 2.4
    endloop
  endfacet
  facet normal -0 0 1
    outer loop
      vertex 97 1 2.4
      vertex 169 0 2.4
      vertex 120 1 2.4
    endloop
  endfacet
  facet normal 0 0 1
    outer loop
      vertex 96 24 2.4
      vertex 97 24 2.4
      vertex 96 25 2.4
    endloop
  endfacet
  facet normal 0 0 1
    outer loop
      vertex 97 24 2.4
      vertex 96 24 2.4
      vertex 97 1 2.4
    endloop
  endfacet
  facet normal 0 0 1
    outer loop
      vertex 96 1 2.4
      vertex 97 1 2.4
      vertex 96 24 2.4
    endloop
  endfacet
  facet normal -0 0 1
    outer loop
      vertex 96 1 2.4
      vertex 169 0 2.4
      vertex 97 1 2.4
    endloop
  endfacet
  facet normal -0 0 1
    outer loop
      vertex 73 1 2.4
      vertex 169 0 2.4
      vertex 96 1 2.4
    endloop
  endfacet
  facet normal 0 0 1
    outer loop
      vertex 72 24 2.4
      vertex 73 24 2.4
      vertex 72 25 2.4
    endloop
  endfacet
  facet normal 0 0 1
    outer loop
      vertex 73 24 2.4
      vertex 72 24 2.4
      vertex 73 1 2.4
    endloop
  endfacet
  facet normal 0 0 1
    outer loop
      vertex 72 1 2.4
      vertex 73 1 2.4
      vertex 72 24 2.4
    endloop
  endfacet
  facet normal -0 0 1
    outer loop
      vertex 72 1 2.4
      vertex 169 0 2.4
      vertex 73 1 2.4
    endloop
  endfacet
  facet normal 0 0 1
    outer loop
      vertex 0 0 2.4
      vertex 72 1 2.4
      vertex 49 1 2.4
    endloop
  endfacet
  facet normal 0 0 1
    outer loop
      vertex 48 24 2.4
      vertex 49 24 2.4
      vertex 48 25 2.4
    endloop
  endfacet
  facet normal 0 0 1
    outer loop
      vertex 49 24 2.4
      vertex 48 24 2.4
      vertex 49 1 2.4
    endloop
  endfacet
  facet normal 0 0 1
    outer loop
      vertex 48 1 2.4
      vertex 49 1 2.4
      vertex 48 24 2.4
    endloop
  endfacet
  facet normal 0 0 1
    outer loop
      vertex 0 0 2.4
      vertex 49 1 2.4
      vertex 48 1 2.4
    endloop
  endfacet
  facet normal 0 0 1
    outer loop
      vertex 0 0 2.4
      vertex 48 1 2.4
      vertex 25 1 2.4
    endloop
  endfacet
  facet normal 0 0 1
    outer loop
      vertex 24 24 2.4
      vertex 25 24 2.4
      vertex 24 25 2.4
    endloop
  endfacet
  facet normal 0 0 1
    outer loop
      vertex 25 24 2.4
      vertex 24 24 2.4
      vertex 25 1 2.4
    endloop
  endfacet
  facet normal 0 0 1
    outer loop
      vertex 24 1 2.4
      vertex 25 1 2.4
      vertex 24 24 2.4
    endloop
  endfacet
  facet normal 0 0 1
    outer loop
      vertex 0 0 2.4
      vertex 25 1 2.4
      vertex 24 1 2.4
    endloop
  endfacet
  facet normal 0 0 1
    outer loop
      vertex 0 0 2.4
      vertex 24 1 2.4
      vertex 1 1 2.4
    endloop
  endfacet
  facet normal 0 0 1
    outer loop
      vertex 72 1 2.4
      vertex 0 0 2.4
      vertex 169 0 2.4
    endloop
  endfacet
  facet normal 0 0 1
    outer loop
      vertex 1 24 2.4
      vertex 0 0 2.4
      vertex 1 1 2.4
    endloop
  endfacet
  facet normal 1 -0 0
    outer loop
      vertex 169 0 2.4
      vertex 169 49 0
      vertex 169 49 2.4
    endloop
  endfacet
  facet normal 1 0 0
    outer loop
      vertex 169 49 0
      vertex 169 0 2.4
      vertex 169 0 0
    endloop
  endfacet
  facet normal 0 0 -1
    outer loop
      vertex 0 0 0
      vertex 8.45 49 0
      vertex 8.45 0 0
    endloop
  endfacet
  facet normal -0 0 -1
    outer loop
      vertex 8.45 49 0
      vertex 0 0 0
      vertex 0 49 0
    endloop
  endfacet
  facet normal 0 0 -1
    outer loop
      vertex 146.65 0 0
      vertex 169 49 0
      vertex 169 0 0
    endloop
  endfacet
  facet normal -0 0 -1
    outer loop
      vertex 169 49 0
      vertex 146.65 0 0
      vertex 146.65 49 0
    endloop
  endfacet
  facet normal 0 0 -1
    outer loop
      vertex 11.45 0 0
      vertex 42.25 49 0
      vertex 42.25 0 0
    endloop
  endfacet
  facet normal -0 0 -1
    outer loop
      vertex 42.25 49 0
      vertex 11.45 0 0
      vertex 11.45 49 0
    endloop
  endfacet
  facet normal 0 0 -1
    outer loop
      vertex 45.25 0 0
      vertex 76.05 49 0
      vertex 76.05 0 0
    endloop
  endfacet
  facet normal -0 0 -1
    outer loop
      vertex 76.05 49 0
      vertex 45.25 0 0
      vertex 45.25 49 0
    endloop
  endfacet
  facet normal 0 0 -1
    outer loop
      vertex 79.05 0 0
      vertex 109.85 49 0
      vertex 109.85 0 0
    endloop
  endfacet
  facet normal -0 0 -1
    outer loop
      vertex 109.85 49 0
      vertex 79.05 0 0
      vertex 79.05 49 0
    endloop
  endfacet
  facet normal 0 0 -1
    outer loop
      vertex 112.85 0 0
      vertex 143.65 49 0
      vertex 143.65 0 0
    endloop
  endfacet
  facet normal -0 0 -1
    outer loop
      vertex 143.65 49 0
      vertex 112.85 0 0
      vertex 112.85 49 0
    endloop
  endfacet
  facet normal 0 -1 0
    outer loop
      vertex 112.85 0 0
      vertex 143.65 0 0.599999
      vertex 112.85 0 0.599999
    endloop
  endfacet
  facet normal 0 -1 -0
    outer loop
      vertex 143.65 0 0.599999
      vertex 112.85 0 0
      vertex 143.65 0 0
    endloop
  endfacet
  facet normal 0 -1 0
    outer loop
      vertex 79.05 0 0
      vertex 109.85 0 0.599999
      vertex 79.05 0 0.599999
    endloop
  endfacet
  facet normal 0 -1 -0
    outer loop
      vertex 109.85 0 0.599999
      vertex 79.05 0 0
      vertex 109.85 0 0
    endloop
  endfacet
  facet normal 0 -1 0
    outer loop
      vertex 45.25 0 0
      vertex 76.05 0 0.599999
      vertex 45.25 0 0.599999
    endloop
  endfacet
  facet normal 0 -1 -0
    outer loop
      vertex 76.05 0 0.599999
      vertex 45.25 0 0
      vertex 76.05 0 0
    endloop
  endfacet
  facet normal 0 -1 0
    outer loop
      vertex 11.45 0 0
      vertex 42.25 0 0.599999
      vertex 11.45 0 0.599999
    endloop
  endfacet
  facet normal 0 -1 -0
    outer loop
      vertex 42.25 0 0.599999
      vertex 11.45 0 0
      vertex 42.25 0 0
    endloop
  endfacet
  facet normal 0 -1 0
    outer loop
      vertex 11.45 0 0.599999
      vertex 0 0 2.4
      vertex 8.45 0 0.599999
    endloop
  endfacet
  facet normal 0 -1 0
    outer loop
      vertex 0 0 0
      vertex 8.45 0 0.599999
      vertex 0 0 2.4
    endloop
  endfacet
  facet normal 0 -1 -0
    outer loop
      vertex 8.45 0 0.599999
      vertex 0 0 0
      vertex 8.45 0 0
    endloop
  endfacet
  facet normal 0 -1 0
    outer loop
      vertex 42.25 0 0.599999
      vertex 0 0 2.4
      vertex 11.45 0 0.599999
    endloop
  endfacet
  facet normal 0 -1 0
    outer loop
      vertex 45.25 0 0.599999
      vertex 0 0 2.4
      vertex 42.25 0 0.599999
    endloop
  endfacet
  facet normal 0 -1 0
    outer loop
      vertex 76.05 0 0.599999
      vertex 0 0 2.4
      vertex 45.25 0 0.599999
    endloop
  endfacet
  facet normal 0 -1 0
    outer loop
      vertex 0 0 2.4
      vertex 76.05 0 0.599999
      vertex 169 0 2.4
    endloop
  endfacet
  facet normal 0 -1 0
    outer loop
      vertex 79.05 0 0.599999
      vertex 169 0 2.4
      vertex 76.05 0 0.599999
    endloop
  endfacet
  facet normal 0 -1 0
    outer loop
      vertex 109.85 0 0.599999
      vertex 169 0 2.4
      vertex 79.05 0 0.599999
    endloop
  endfacet
  facet normal 0 -1 0
    outer loop
      vertex 112.85 0 0.599999
      vertex 169 0 2.4
      vertex 109.85 0 0.599999
    endloop
  endfacet
  facet normal 0 -1 0
    outer loop
      vertex 143.65 0 0.599999
      vertex 169 0 2.4
      vertex 112.85 0 0.599999
    endloop
  endfacet
  facet normal 0 -1 0
    outer loop
      vertex 146.65 0 0.599999
      vertex 169 0 2.4
      vertex 143.65 0 0.599999
    endloop
  endfacet
  facet normal 0 -1 0
    outer loop
      vertex 169 0 0
      vertex 146.65 0 0.599999
      vertex 146.65 0 0
    endloop
  endfacet
  facet normal 0 -1 0
    outer loop
      vertex 146.65 0 0.599999
      vertex 169 0 0
      vertex 169 0 2.4
    endloop
  endfacet
  facet normal 0 1 -0
    outer loop
      vertex 42.25 49 0
      vertex 11.45 49 0.599999
      vertex 42.25 49 0.599999
    endloop
  endfacet
  facet normal 0 1 0
    outer loop
      vertex 11.45 49 0.599999
      vertex 42.25 49 0
      vertex 11.45 49 0
    endloop
  endfacet
  facet normal 0 1 -0
    outer loop
      vertex 76.05 49 0
      vertex 45.25 49 0.599999
      vertex 76.05 49 0.599999
    endloop
  endfacet
  facet normal 0 1 0
    outer loop
      vertex 45.25 49 0.599999
      vertex 76.05 49 0
      vertex 45.25 49 0
    endloop
  endfacet
  facet normal 0 1 -0
    outer loop
      vertex 109.85 49 0
      vertex 79.05 49 0.599999
      vertex 109.85 49 0.599999
    endloop
  endfacet
  facet normal 0 1 0
    outer loop
      vertex 79.05 49 0.599999
      vertex 109.85 49 0
      vertex 79.05 49 0
    endloop
  endfacet
  facet normal 0 1 -0
    outer loop
      vertex 143.65 49 0
      vertex 112.85 49 0.599999
      vertex 143.65 49 0.599999
    endloop
  endfacet
  facet normal 0 1 0
    outer loop
      vertex 112.85 49 0.599999
      vertex 143.65 49 0
      vertex 112.85 49 0
    endloop
  endfacet
  facet normal 0 1 0
    outer loop
      vertex 143.65 49 0.599999
      vertex 169 49 2.4
      vertex 146.65 49 0.599999
    endloop
  endfacet
  facet normal 0 1 -0
    outer loop
      vertex 169 49 0
      vertex 146.65 49 0.599999
      vertex 169 49 2.4
    endloop
  endfacet
  facet normal 0 1 0
    outer loop
      vertex 146.65 49 0.599999
      vertex 169 49 0
      vertex 146.65 49 0
    endloop
  endfacet
  facet normal 0 1 0
    outer loop
      vertex 112.85 49 0.599999
      vertex 169 49 2.4
      vertex 143.65 49 0.599999
    endloop
  endfacet
  facet normal 0 1 0
    outer loop
      vertex 109.85 49 0.599999
      vertex 169 49 2.4
      vertex 112.85 49 0.599999
    endloop
  endfacet
  facet normal 0 1 0
    outer loop
      vertex 169 49 2.4
      vertex 109.85 49 0.599999
      vertex 0 49 2.4
    endloop
  endfacet
  facet normal 0 1 -0
    outer loop
      vertex 79.05 49 0.599999
      vertex 0 49 2.4
      vertex 109.85 49 0.599999
    endloop
  endfacet
  facet normal 0 1 -0
    outer loop
      vertex 76.05 49 0.599999
      vertex 0 49 2.4
      vertex 79.05 49 0.599999
    endloop
  endfacet
  facet normal 0 1 -0
    outer loop
      vertex 45.25 49 0.599999
      vertex 0 49 2.4
      vertex 76.05 49 0.599999
    endloop
  endfacet
  facet normal 0 1 -0
    outer loop
      vertex 42.25 49 0.599999
      vertex 0 49 2.4
      vertex 45.25 49 0.599999
    endloop
  endfacet
  facet normal 0 1 -0
    outer loop
      vertex 11.45 49 0.599999
      vertex 0 49 2.4
      vertex 42.25 49 0.599999
    endloop
  endfacet
  facet normal 0 1 -0
    outer loop
      vertex 8.45 49 0.599999
      vertex 0 49 2.4
      vertex 11.45 49 0.599999
    endloop
  endfacet
  facet normal 0 1 0
    outer loop
      vertex 0 49 0
      vertex 8.45 49 0.599999
      vertex 8.45 49 0
    endloop
  endfacet
  facet normal 0 1 0
    outer loop
      vertex 8.45 49 0.599999
      vertex 0 49 0
      vertex 0 49 2.4
    endloop
  endfacet
endsolid OpenSCAD_Model
